<svg width="62" height="62" viewBox="0 0 62 62" fill="none" xmlns="http://www.w3.org/2000/svg">
<path d="M59.6706 33.0654C59.4442 32.6602 58.9436 32.5171 58.5384 32.7317L54.0451 35.2107L52.2811 36.1881L33.5451 46.4857C32.2936 47.177 30.7204 46.7122 30.041 45.4726C29.7073 44.8648 29.6358 44.1735 29.8265 43.5061C30.0172 42.8386 30.4582 42.2904 31.066 41.9686L54.0689 29.323L56.0712 28.2264C56.4765 28 56.6195 27.4994 56.4049 27.0942C56.1785 26.6889 55.6779 26.5459 55.2727 26.7605L54.2596 27.3206L51.3276 13.6262C51.1846 12.8872 50.7079 12.2675 50.0166 11.9457C49.3253 11.6239 48.5506 11.6477 47.8831 12.0172L18.8971 27.9285L14.8567 23.7808C14.5945 23.5067 14.1893 23.4471 13.8556 23.6259L8.92129 26.3433C8.51605 26.5698 8.37303 27.0703 8.58756 27.4756C8.81402 27.8808 9.3146 28.0238 9.71983 27.8093L14.1059 25.4017L18.1344 29.5494L29.3855 41.1224C28.8372 41.6349 28.432 42.2904 28.2175 43.0413C27.8957 44.1378 28.0268 45.2819 28.575 46.2712C29.3497 47.6776 30.8038 48.4761 32.3056 48.4761C32.9968 48.4761 33.7 48.3093 34.3436 47.9517L35.7262 47.1889C35.7977 47.4035 35.8931 47.618 36.0003 47.8206C36.5128 48.7503 37.359 49.4296 38.3721 49.7157C38.7416 49.8229 39.1111 49.8706 39.4805 49.8706C40.1361 49.8706 40.7916 49.7037 41.3875 49.3819C42.3172 48.8694 42.9965 48.0351 43.2826 47.0101C43.5805 45.9971 43.4614 44.9244 42.9489 43.9947C42.8416 43.7921 42.7105 43.6014 42.5675 43.4226L49.0154 39.8828C49.0869 40.0974 49.1823 40.3119 49.2895 40.5145C49.802 41.4442 50.6483 42.1235 51.6613 42.4096C52.0308 42.5168 52.4003 42.5645 52.7698 42.5645C53.4253 42.5645 54.0808 42.3976 54.6767 42.0758C55.6064 41.5633 56.2858 40.729 56.5718 39.704C56.8698 38.691 56.7506 37.6183 56.2381 36.6886C56.1308 36.486 55.9997 36.2953 55.8567 36.1166L59.3369 34.2096C59.7541 33.9712 59.8971 33.4706 59.6706 33.0654ZM47.2157 16.7488C47.6686 16.6535 48.1096 16.9395 48.205 17.3924L50.1477 26.4387C50.243 26.8916 49.957 27.3326 49.5041 27.4279C49.4445 27.4398 49.3849 27.4517 49.3253 27.4517C48.9439 27.4517 48.5983 27.1895 48.5148 26.7962L46.5721 17.75C46.4768 17.2852 46.7628 16.8442 47.2157 16.7488Z" fill="#FF9E1B"/>
<path d="M12.0186 32.0404C12.0186 31.5755 11.6491 31.2061 11.1843 31.2061H2.42414C1.95932 31.2061 1.58984 31.5755 1.58984 32.0404C1.58984 32.5052 1.95932 32.8747 2.42414 32.8747H11.1843C11.6491 32.8747 12.0186 32.5052 12.0186 32.0404Z" fill="#68727C"/>
<path d="M11.0859 43.6253C11.0859 44.0901 11.4554 44.4596 11.9202 44.4596H22.7304C23.1952 44.4596 23.5647 44.0901 23.5647 43.6253C23.5647 43.1605 23.1952 42.791 22.7304 42.791H11.9202C11.4554 42.791 11.0859 43.1605 11.0859 43.6253Z" fill="#68727C"/>
<path d="M4.89062 38.8341C4.89062 39.2989 5.2601 39.6684 5.72493 39.6684H20.349C20.8139 39.6684 21.1833 39.2989 21.1833 38.8341C21.1833 38.3692 20.8139 37.9998 20.349 37.9998H5.72493C5.2601 37.9998 4.89062 38.3692 4.89062 38.8341Z" fill="#68727C"/>
<path d="M18.7399 35.9616C19.2047 35.9616 19.5742 35.5921 19.5742 35.1273C19.5742 34.6624 19.2047 34.293 18.7399 34.293H14.8187C14.3539 34.293 13.9844 34.6624 13.9844 35.1273C13.9844 35.5921 14.3539 35.9616 14.8187 35.9616H18.7399Z" fill="#68727C"/>
<path d="M25.4274 39.3704H23.6038C23.139 39.3704 22.7695 39.7398 22.7695 40.2047C22.7695 40.6695 23.139 41.039 23.6038 41.039H25.4274C25.8922 41.039 26.2617 40.6695 26.2617 40.2047C26.2617 39.7398 25.8922 39.3704 25.4274 39.3704Z" fill="#68727C"/>
<path d="M25.4268 46.5215H18.514C18.0492 46.5215 17.6797 46.891 17.6797 47.3558C17.6797 47.8206 18.0492 48.1901 18.514 48.1901H25.4268C25.8916 48.1901 26.2611 47.8206 26.2611 47.3558C26.2611 46.891 25.8916 46.5215 25.4268 46.5215Z" fill="#68727C"/>
<path d="M14.031 46.5215H8.82258C8.35776 46.5215 7.98828 46.891 7.98828 47.3558C7.98828 47.8206 8.35776 48.1901 8.82258 48.1901H14.031C14.4958 48.1901 14.8653 47.8206 14.8653 47.3558C14.8653 46.891 14.4839 46.5215 14.031 46.5215Z" fill="#68727C"/>
<path d="M6.2748 42.4097H3.53352C3.06869 42.4097 2.69922 42.7791 2.69922 43.244C2.69922 43.7088 3.06869 44.0783 3.53352 44.0783H6.2748C6.73962 44.0783 7.1091 43.7088 7.1091 43.244C7.1091 42.7791 6.73962 42.4097 6.2748 42.4097Z" fill="#68727C"/>
<path d="M8.82253 35.9616C9.28735 35.9616 9.65683 35.5921 9.65683 35.1273C9.65683 34.6624 9.28735 34.293 8.82253 34.293H7.42805C6.96323 34.293 6.59375 34.6624 6.59375 35.1273C6.59375 35.5921 6.96323 35.9616 7.42805 35.9616H8.82253Z" fill="#68727C"/>
</svg>
