<svg width="532" height="213" viewBox="0 0 532 213" fill="none" xmlns="http://www.w3.org/2000/svg">
<g clip-path="url(#clip0_5496_32563)">
<rect width="532" height="213" fill="#E4EBF4"/>
<path d="M425.464 74.632C408.382 36.388 375.391 6.72094 337.47 -9.24006C299.549 -25.2011 257.069 -28.0341 216.639 -21.1341C178.612 -14.6431 141.586 0.562943 111.796 25.6799C82.0065 50.7969 59.8595 86.1979 53.3245 125.198C47.7805 158.285 53.4245 192.322 62.1825 224.668C67.5025 244.317 79.0185 265.072 92.5605 280.097C114.254 304.166 150.519 325.583 176.932 324.997L173.971 325.169C262.086 336.555 352.703 301.997 394.589 254.152C436.477 206.307 451.582 133.105 425.464 74.632Z" fill="#E4EBF4"/>
<path d="M398.586 212.797C411.009 200.374 411.009 180.232 398.586 167.809C386.163 155.387 366.022 155.387 353.599 167.809C341.176 180.232 341.176 200.374 353.599 212.797C366.022 225.219 386.163 225.219 398.586 212.797Z" fill="white"/>
<path d="M367.268 178.266C367.268 178.266 369.546 175.062 369.827 176.059C370.108 177.056 369.521 179.173 369.521 179.173L371.435 180.003C372.166 180.329 373.4 180.946 370.956 181.095L369.703 181.196C369.703 181.196 369.223 184.39 368.737 184.554C368.281 184.708 367.637 181.945 367.637 181.945C367.637 181.945 364.432 184.226 364.621 183.107C364.81 181.988 366.095 179.779 366.095 179.779C366.095 179.779 363.192 177.182 364.542 177.292C364.828 177.316 367.268 178.266 367.268 178.266Z" fill="#E4EBF4"/>
<path d="M387.586 183.493C387.586 183.493 389.863 180.289 390.144 181.286C390.425 182.283 389.838 184.4 389.838 184.4L391.752 185.23C392.483 185.556 393.718 186.173 391.273 186.322L390.02 186.423C390.02 186.423 389.54 189.617 389.054 189.781C388.599 189.935 387.953 187.172 387.953 187.172C387.953 187.172 384.749 189.453 384.938 188.334C385.127 187.215 386.412 185.006 386.412 185.006C386.412 185.006 383.508 182.409 384.858 182.519C385.145 182.543 387.586 183.493 387.586 183.493Z" fill="#E4EBF4"/>
<path d="M370.077 185.723C371.155 188.083 373.247 189.947 375.736 190.702C378.352 191.495 381.289 191.017 383.536 189.471C384.261 188.972 383.623 187.741 382.889 188.247C380.935 189.591 378.452 190.076 376.161 189.384C373.992 188.729 372.238 187.126 371.302 185.076C370.931 184.265 369.707 184.913 370.077 185.723Z" fill="#E4EBF4"/>
<path d="M92.3342 134.959C104.697 134.959 114.719 124.937 114.719 112.574C114.719 100.211 104.697 90.189 92.3342 90.189C79.9713 90.189 69.9492 100.211 69.9492 112.574C69.9492 124.937 79.9713 134.959 92.3342 134.959Z" fill="white"/>
<path d="M86.8651 112.745C88.7191 113.731 90.9281 113.818 92.8421 112.944C94.5241 112.176 95.7941 110.655 96.3601 108.909C96.6351 108.059 95.2991 107.696 95.0251 108.541C94.5761 109.925 93.5631 111.062 92.2561 111.695C90.7901 112.405 88.9881 112.306 87.5641 111.549C86.7771 111.132 86.0771 112.326 86.8651 112.745Z" fill="#E4EBF4"/>
<path d="M84.6845 110.945C84.7085 110.945 84.7325 110.945 84.7565 110.945C84.8515 110.949 84.9405 110.929 85.0235 110.885C85.1095 110.857 85.1835 110.809 85.2465 110.742C85.3135 110.679 85.3615 110.605 85.3895 110.519C85.4325 110.437 85.4525 110.348 85.4495 110.252C85.4415 110.191 85.4325 110.129 85.4245 110.068C85.3915 109.951 85.3325 109.849 85.2465 109.763C85.1995 109.727 85.1535 109.691 85.1065 109.655C84.9985 109.592 84.8815 109.561 84.7575 109.56C84.7335 109.56 84.7095 109.56 84.6855 109.56C84.5905 109.556 84.5015 109.576 84.4185 109.62C84.3325 109.648 84.2585 109.696 84.1955 109.763C84.1275 109.826 84.0805 109.9 84.0525 109.986C84.0095 110.068 83.9895 110.157 83.9925 110.253C84.0005 110.314 84.0085 110.376 84.0175 110.437C84.0505 110.554 84.1095 110.656 84.1955 110.743C84.2425 110.779 84.2885 110.815 84.3355 110.851C84.4435 110.913 84.5595 110.944 84.6845 110.945Z" fill="#E4EBF4"/>
<path d="M95.5792 106.038C96.4702 106.038 96.4712 104.654 95.5792 104.654C94.6882 104.654 94.6862 106.038 95.5792 106.038Z" fill="#E4EBF4"/>
<path d="M382.263 61.6283C391.859 52.0328 391.859 36.4755 382.263 26.88C372.668 17.2845 357.11 17.2845 347.515 26.88C337.919 36.4755 337.919 52.0328 347.515 61.6283C357.11 71.2238 372.668 71.2238 382.263 61.6283Z" fill="white"/>
<path d="M370.219 44.5158C369.585 42.5938 368.175 40.9438 366.312 40.1188C364.245 39.2038 361.865 39.3228 359.879 40.3898C359.094 40.8118 359.792 42.0078 360.578 41.5848C362.149 40.7398 364.107 40.6238 365.741 41.3708C367.221 42.0468 368.376 43.3388 368.885 44.8828C369.161 45.7258 370.499 45.3648 370.219 44.5158Z" fill="#E4EBF4"/>
<path d="M360.351 36.9588C360.369 36.9778 360.388 36.9968 360.406 37.0158C360.469 37.0828 360.543 37.1308 360.629 37.1588C360.712 37.2018 360.8 37.2218 360.896 37.2188C360.991 37.2228 361.08 37.2028 361.163 37.1588C361.249 37.1308 361.323 37.0828 361.386 37.0158C361.422 36.9688 361.458 36.9228 361.494 36.8758C361.557 36.7678 361.588 36.6518 361.588 36.5268C361.58 36.4658 361.571 36.4038 361.563 36.3428C361.53 36.2258 361.471 36.1238 361.385 36.0378C361.367 36.0188 361.348 35.9998 361.33 35.9808C361.267 35.9138 361.193 35.8658 361.107 35.8378C361.025 35.7948 360.936 35.7748 360.84 35.7778C360.745 35.7738 360.656 35.7938 360.573 35.8378C360.487 35.8658 360.413 35.9138 360.35 35.9808C360.314 36.0278 360.278 36.0738 360.242 36.1208C360.179 36.2288 360.148 36.3448 360.148 36.4698C360.156 36.5308 360.164 36.5928 360.173 36.6538C360.206 36.7708 360.266 36.8728 360.351 36.9588Z" fill="#E4EBF4"/>
<path d="M373.056 41.9419C373.947 41.9419 373.948 40.5579 373.056 40.5579C372.165 40.5579 372.163 41.9419 373.056 41.9419Z" fill="#E4EBF4"/>
<path d="M371.88 39.6198C373.291 39.6748 374.702 39.7288 376.113 39.7838C376.475 39.7978 376.822 39.4558 376.805 39.0918C376.788 38.7048 376.501 38.4148 376.113 38.3998C374.702 38.3448 373.291 38.2908 371.88 38.2358C371.518 38.2218 371.172 38.5638 371.188 38.9278C371.205 39.3148 371.492 39.6048 371.88 39.6198Z" fill="#E4EBF4"/>
<path d="M361.159 32.7549C361.603 33.8299 362.112 34.8739 362.704 35.8759C362.888 36.1879 363.336 36.3279 363.651 36.1239C363.965 35.9219 364.097 35.5109 363.899 35.1769C363.623 34.7109 363.363 34.2349 363.12 33.7509C363.001 33.5129 362.886 33.2729 362.775 33.0309C362.722 32.9139 362.669 32.7969 362.617 32.6789C362.588 32.6119 362.557 32.5449 362.53 32.4769C362.595 32.6429 362.505 32.4179 362.493 32.3879C362.421 32.2139 362.344 32.0729 362.175 31.9739C362.027 31.8869 361.808 31.8499 361.642 31.9039C361.322 32.0069 361.011 32.3959 361.159 32.7549Z" fill="#E4EBF4"/>
<path d="M81.566 245.134C79.877 244.947 79.342 242.753 80.781 241.844C85.103 239.113 93.523 235.695 93.523 235.695C93.278 234.466 90.889 220.625 101.655 218.167C112.421 215.709 144.492 212.48 153.499 220.007C160.909 226.2 161.542 252.366 157.629 254.891C151.453 258.877 103.4 263.23 98.396 257.012C96.429 254.568 94.183 245.94 94.183 245.94C94.183 245.94 86.366 245.666 81.566 245.134Z" fill="white"/>
<path d="M247.152 -1.27106C247.386 -5.61606 249.861 -8.96507 255.448 -9.72607C255.448 -9.72607 261.875 -10.3611 265.759 -10.4661C269.643 -10.5711 273.892 -9.60006 276.269 -6.52706C278.087 -4.17706 278.475 -1.05407 278.727 1.90593C278.914 4.10593 279.059 6.34093 278.624 8.50593C278.188 10.6709 277.101 12.7879 275.272 14.0249C273.246 15.3939 270.652 15.5059 268.207 15.5709C266.89 15.6059 265.573 15.6409 264.256 15.6769C263.932 18.0709 260.047 22.4409 258.583 20.7909C258.029 20.1669 259.1 16.9999 259.512 15.8029C258.18 15.8389 256.849 15.8739 255.517 15.9099C253.187 15.9719 250.558 15.9179 248.952 14.2279C247.836 13.0539 247.453 10.4029 247.167 8.80894L247.152 -1.27106Z" fill="white"/>
<path d="M269.558 -2.07806C269.449 -3.54706 268.494 -5.06706 266.636 -4.87806C265.783 -4.79106 265.003 -4.33406 264.455 -3.67506C263.276 -2.25706 263.159 -0.367057 263.073 1.42294C262.652 0.230943 262.223 -0.977057 261.511 -2.02106C260.62 -3.32906 259.214 -4.38106 257.546 -4.25306C256.776 -4.19406 256.035 -3.84206 255.555 -3.23706C254.493 -1.89906 255.101 -0.155058 255.79 1.27894C257.348 4.52294 259.807 7.71194 262.241 10.5169C262.815 11.1789 263.865 11.1139 264.35 10.3829C266.167 7.64395 268.218 3.95794 269.108 0.841942C269.378 -0.110058 269.631 -1.09006 269.558 -2.07806Z" fill="#E4EBF4"/>
<path d="M414.7 146.226C414.591 144.757 413.636 143.237 411.778 143.426C410.925 143.513 410.145 143.97 409.597 144.629C408.418 146.047 408.301 147.937 408.214 149.727C407.793 148.535 407.364 147.327 406.652 146.283C405.761 144.975 404.355 143.923 402.687 144.051C401.917 144.11 401.176 144.462 400.696 145.067C399.634 146.405 400.242 148.149 400.931 149.583C402.489 152.828 404.948 156.015 407.382 158.821C407.956 159.483 409.006 159.418 409.491 158.687C411.308 155.948 413.359 152.262 414.249 149.146C414.52 148.193 414.774 147.213 414.7 146.226Z" fill="white"/>
<path d="M239.906 94.3802C237.468 99.7072 124.164 96.4711 118.711 93.1931C113.857 90.2721 116.326 25.4982 116.925 11.3982C116.999 9.66416 117.041 8.69815 117.041 8.69815C116.904 6.04015 119.405 1.41715 123.524 0.828151C147.753 -2.67085 231.008 0.418151 235.189 3.67515C236.009 4.31615 236.755 7.12116 237.406 11.3972C240.704 32.6422 241.944 89.9462 239.906 94.3802Z" fill="white"/>
<path d="M237.406 11.3982H116.926C117 9.66416 117.042 8.69815 117.042 8.69815C116.905 6.04015 119.406 1.41715 123.525 0.828151C147.754 -2.67085 231.009 0.418151 235.19 3.67515C236.009 4.31615 236.755 7.12116 237.406 11.3982Z" fill="#A0D2F4"/>
<path d="M115.762 59.25C116.381 58.53 137.606 50.943 155.365 55.208C173.793 59.634 180.481 52.791 193.939 62.391C207.397 71.992 216.31 97.1021 216.31 97.1021L140.128 96.275L124.288 96.103C119.565 96.052 115.763 92.208 115.763 87.485L115.762 59.25Z" fill="#007CC3"/>
<path d="M132.947 6.72711C132.947 7.49311 132.326 8.11511 131.559 8.11511C130.793 8.11511 130.172 7.49411 130.172 6.72711C130.172 5.96111 130.793 5.33911 131.559 5.33911C132.326 5.34011 132.947 5.96111 132.947 6.72711Z" fill="white"/>
<path d="M126.689 8.11511C127.455 8.11511 128.077 7.49368 128.077 6.72711C128.077 5.96054 127.455 5.33911 126.689 5.33911C125.922 5.33911 125.301 5.96054 125.301 6.72711C125.301 7.49368 125.922 8.11511 126.689 8.11511Z" fill="white"/>
<path d="M200.353 97.7641C192.211 97.7641 183.64 97.6511 175.493 97.4641C149.273 96.8641 121.252 95.3671 118.425 93.6681C113.542 90.7301 115.362 35.1391 116.371 11.3751L116.487 8.6741C116.336 5.7811 119.034 0.911091 123.444 0.280091C147.899 -3.24991 231.029 -0.263909 235.528 3.23809C236.11 3.69409 236.994 5.02609 237.952 11.3141C241.3 32.8771 242.534 89.9851 240.408 94.6111C240.197 95.0711 239.655 95.4151 238.65 95.7261C233.81 97.2251 218.099 97.7641 200.353 97.7641ZM159.091 -0.199909C144.522 -0.199909 131.394 0.250092 123.602 1.37509C119.671 1.93709 117.477 6.41709 117.594 8.66809L117.478 11.4201C115.822 50.4351 115.649 90.7031 118.997 92.7171C124.056 95.7581 223.08 98.6671 237.888 94.7901C239.201 94.4461 239.392 94.1661 239.404 94.1461C241.43 89.7311 240.082 32.2371 236.859 11.4811C235.954 5.54009 235.151 4.34709 234.848 4.11009C232.264 2.10009 192.007 -0.199909 159.091 -0.199909Z" fill="#007CC3"/>
<path d="M174.755 93.5451C170.39 91.6571 169.909 93.4271 169.909 93.4271C165.889 90.5951 163.782 92.0111 163.782 92.0111C158.473 88.5891 154.996 92.0111 154.996 92.0111L150.332 91.1851C146.573 91.0531 143.828 94.2091 141.793 96.2921C145.841 97.1011 148.533 97.0221 152.609 97.7411C155.558 97.9771 156.204 99.5851 156.204 99.5851C156.204 99.5851 158.21 108.157 162.602 108.174C163.899 108.179 164.513 107.274 164.812 106.184C164.958 107.22 165.523 108.281 167.105 108.715C170.62 109.678 170.427 107.102 170.427 107.102C170.427 107.102 170.57 108.405 173.985 107.979C177.4 107.554 174.989 101.567 174.989 101.567C174.989 101.567 178.646 105.578 182.54 104.517C186.435 103.456 179.12 95.4331 174.755 93.5451Z" fill="#944D4D"/>
<path d="M204.566 8.51499C202.03 3.54399 194.902 -4.34101 185.904 -3.99801C185.621 -3.98701 185.357 -3.92501 185.102 -3.84701C184.185 -5.84801 177.457 -6.84101 175.009 -6.72301C171.33 -6.54501 165.49 -5.91901 162.05 -4.60301C156.586 -2.51101 152.937 0.164992 148.5 3.97899C141.311 10.158 137.482 25.769 149.961 40.08L188.542 47.018C197.224 43.945 201.026 33.077 202.435 29.841C205.22 23.448 207.735 14.725 204.566 8.51499ZM183.279 -3.30501C183.016 -3.29401 182.751 -3.33901 182.475 -3.48301C182.019 -3.72201 182.561 -3.50601 183.279 -3.30501Z" fill="#421B36"/>
<path d="M165.078 -0.285874C179.046 -9.75987 198.504 -0.648876 200.221 16.1411C200.764 21.4511 199.522 27.7721 196.408 35.6741C187.722 57.7211 167.732 50.1971 167.732 50.1971L165.027 68.0931L146.613 58.5011L151.332 32.5431C151.332 32.5431 154.86 15.0481 160.126 5.08412C161.296 2.86712 163.033 1.10213 165.078 -0.285874Z" fill="#944D4D"/>
<path d="M191.704 20.6001C191.418 21.4201 190.587 21.8761 189.848 21.6191C189.109 21.3621 188.741 20.4881 189.027 19.6681C189.313 18.8481 190.143 18.3921 190.883 18.6491C191.622 18.9061 191.99 19.7791 191.704 20.6001Z" fill="#421B36"/>
<path d="M176.864 14.8911C176.578 15.7111 175.747 16.1671 175.008 15.9101C174.269 15.6531 173.901 14.7791 174.187 13.9591C174.473 13.1391 175.303 12.6831 176.043 12.9401C176.782 13.1971 177.15 14.0711 176.864 14.8911Z" fill="#421B36"/>
<path d="M158.353 43.165C159.49 45.068 160.639 46.997 162.423 48.373C164.511 49.983 167.273 50.845 169.792 51.468C170.641 51.678 170.971 50.442 170.151 50.167C167.749 49.359 165.273 48.734 163.143 47.305C161.406 46.14 159.965 44.518 158.452 43.09C158.401 43.042 158.316 43.103 158.353 43.165Z" fill="#421B36"/>
<path d="M151.052 13.0512C150.014 11.9872 148.328 11.7152 146.91 12.1612C145.492 12.6062 144.332 13.6762 143.521 14.9212C142.172 16.9912 141.719 19.7212 142.697 21.9902C143.674 24.2602 146.218 25.8612 148.648 25.4122" fill="#944D4D"/>
<path d="M146.042 18.5002C146.585 18.3492 147.625 18.5312 148.118 18.7402C148.814 19.0352 149.113 19.5762 149.44 20.2142C149.819 20.9552 150.872 20.4172 150.721 19.6742C150.517 18.6672 149.632 17.8182 148.685 17.4892C148.2 17.3212 147.643 17.2642 147.139 17.3852C146.528 17.5322 146.334 17.8732 145.917 18.2832C145.823 18.3742 145.917 18.5342 146.042 18.5002Z" fill="#421B36"/>
<path d="M196.193 11.904C193.691 6.12105 186.983 8.33805 184.94 13.135C183.122 17.404 182.873 21.87 184.094 26.344C184.324 27.187 185.793 27.054 185.675 26.13C185.284 23.075 184.659 20.405 185.444 17.407C185.855 15.837 186.039 14.2411 186.881 12.8001C188.98 9.21005 193.048 9.41205 195.688 12.293C195.955 12.585 196.328 12.215 196.193 11.904Z" fill="#421B36"/>
<path d="M150.045 39.6182C152.222 32.3142 161.491 19.5502 162.91 12.0622C163.044 11.3552 163.2 10.6142 163.673 10.0722C164.116 9.56424 164.773 9.30724 165.399 9.05824C172.7 6.15424 179.454 1.88324 185.209 -3.46676C181.073 -4.14276 176.838 -4.44176 172.692 -3.82976C168.546 -3.21776 164.477 -1.65376 161.295 1.07524C156.001 5.61524 153.776 12.6862 151.793 19.3732C149.1 28.4542 150.943 28.8522 149.886 35.4622C149.707 36.5862 150.503 38.0742 150.045 39.6182Z" fill="#421B36"/>
<path d="M177.436 26.8871C176.695 26.0021 175.974 24.9641 174.86 24.6621C173.68 24.3421 172.415 24.9931 171.621 25.9221C170.042 27.7701 169.989 30.6541 171.24 32.7381C172.492 34.8211 174.86 36.0981 177.278 36.3401C180.409 36.6541 184.337 34.6291 185.414 31.6721C182.322 31.0241 179.464 29.3091 177.436 26.8871Z" fill="#421B36"/>
<path d="M182.73 6.77026C181.521 5.52526 180.02 4.82527 178.374 4.32527C177.347 4.01327 175.877 3.48027 174.808 3.84527C174.176 4.06027 174.18 4.90926 174.808 5.12726C177.267 5.97726 179.929 6.01427 182.214 7.43927C182.63 7.69827 183.063 7.11326 182.73 6.77026Z" fill="#421B36"/>
<path d="M167.14 -12.2039C166.064 -14.9829 163.921 -17.2619 161.421 -18.8839C158.939 -20.4949 156.011 -21.5209 153.056 -21.3989C150.1 -21.2769 147.137 -19.9119 145.424 -17.4979C143.712 -15.0849 143.457 -11.6149 145.106 -9.15888C143.137 -10.7389 139.897 -9.96288 138.5 -7.86088C137.103 -5.75788 137.426 -2.80688 138.886 -0.746885C140.346 1.31311 142.751 2.55312 145.22 3.07612C147.69 3.59912 150.247 3.47612 152.764 3.27712L166.528 -3.60789C168.12 -6.12689 168.216 -9.42588 167.14 -12.2039Z" fill="#421B36"/>
<path d="M175.526 56.8301C175.526 56.8301 181.148 73.1061 160.968 72.0501C140.788 70.9951 134.746 54.076 134.746 54.076C134.746 54.076 157.757 52.7591 175.526 56.8301Z" fill="#944D4D"/>
<path d="M177.491 56.9961C174.167 56.1501 170.81 55.4431 167.427 54.8781C166.556 54.7321 166.181 56.0661 167.059 56.2131C170.442 56.7781 173.799 57.4851 177.123 58.3311C177.987 58.5501 178.355 57.2161 177.491 56.9961Z" fill="#421B36"/>
<path d="M167.357 50.6332C166.509 54.5022 165.287 58.2972 164.625 62.2072C164.478 63.0782 165.811 63.4532 165.96 62.5752C166.622 58.6662 167.844 54.8712 168.692 51.0012C168.882 50.1332 167.548 49.7622 167.357 50.6332Z" fill="#421B36"/>
<path d="M116.424 59.6621C121.219 58.1501 126.21 57.1581 131.139 56.1961C136.475 55.1551 141.942 54.0721 147.392 53.9261C148.281 53.9021 148.285 52.5181 147.392 52.5421C141.945 52.6881 136.473 53.7581 131.138 54.7901C126.087 55.7671 120.969 56.7781 116.056 58.3271C115.209 58.5941 115.571 59.9311 116.424 59.6621Z" fill="#421B36"/>
<path d="M154.128 92.6662C160.468 93.9412 164.836 99.7432 164.324 106.192C164.253 107.08 165.639 107.076 165.709 106.192C166.267 99.1722 161.396 92.7192 154.496 91.3312C153.626 91.1562 153.254 92.4902 154.128 92.6662Z" fill="#421B36"/>
<path d="M163.429 92.4571C167.629 96.1071 169.82 101.662 169.26 107.197C169.17 108.083 170.555 108.076 170.644 107.197C171.237 101.338 168.851 95.3401 164.408 91.4791C163.739 90.8961 162.755 91.8711 163.429 92.4571Z" fill="#421B36"/>
<path d="M168.691 93.7541C172.149 95.1801 174.655 98.6771 174.936 102.398C175.003 103.281 176.388 103.288 176.32 102.398C175.989 98.0011 173.128 94.0971 169.059 92.4191C168.711 92.2751 168.302 92.5751 168.208 92.9031C168.093 93.2981 168.347 93.6121 168.691 93.7541Z" fill="#421B36"/>
<path d="M164.058 101.374C162.419 101.509 160.943 102.631 160.481 104.233C160.01 105.866 160.724 107.635 162.086 108.599C162.391 108.815 162.856 108.654 163.033 108.351C163.236 108.004 163.091 107.621 162.785 107.404C161.915 106.788 161.532 105.586 161.816 104.601C161.96 104.102 162.268 103.67 162.685 103.327C163.061 103.018 163.603 102.796 164.058 102.759C164.431 102.728 164.75 102.463 164.75 102.067C164.75 101.715 164.433 101.343 164.058 101.374Z" fill="#421B36"/>
<path d="M169.561 102.554C168.154 102.51 166.73 103.359 166.159 104.658C165.564 106.012 165.848 107.625 166.879 108.691C167.139 108.96 167.597 108.952 167.858 108.691C168.127 108.422 168.119 107.982 167.858 107.712C167.671 107.518 167.598 107.418 167.461 107.15C167.452 107.132 167.373 106.953 167.412 107.051C167.389 106.995 167.37 106.938 167.351 106.88C167.31 106.753 167.281 106.624 167.253 106.493C167.249 106.469 167.245 106.445 167.241 106.421C167.247 106.473 167.248 106.475 167.242 106.425C167.236 106.365 167.231 106.305 167.229 106.244C167.224 106.111 167.228 105.979 167.239 105.846C167.244 105.797 167.243 105.798 167.236 105.851C167.24 105.827 167.244 105.803 167.248 105.78C167.262 105.709 167.277 105.638 167.295 105.568C167.31 105.51 167.328 105.452 167.347 105.395C167.358 105.361 167.37 105.326 167.383 105.293C167.363 105.335 167.363 105.334 167.384 105.291C167.487 105.061 167.617 104.867 167.732 104.738C167.821 104.639 167.916 104.546 168.017 104.46C168.101 104.388 168.124 104.372 168.257 104.29C168.516 104.129 168.62 104.086 168.886 104.012C168.944 103.996 169.003 103.982 169.062 103.97C169.097 103.963 169.224 103.941 169.128 103.954C169.272 103.935 169.418 103.934 169.562 103.939C169.936 103.951 170.254 103.612 170.254 103.247C170.254 102.861 169.937 102.566 169.561 102.554Z" fill="#421B36"/>
<path d="M175.058 100.62C173.24 100.777 171.716 102.193 171.503 104.02C171.296 105.792 172.522 107.516 174.188 108.052C175.038 108.325 175.402 106.989 174.556 106.717C173.488 106.373 172.745 105.215 172.877 104.106C173.001 103.06 174.009 102.095 175.058 102.004C175.43 101.972 175.75 101.709 175.75 101.312C175.75 100.962 175.432 100.587 175.058 100.62Z" fill="#421B36"/>
<path d="M180.645 98.3761C179.997 98.5111 179.467 99.0051 179.205 99.6011C178.9 100.292 178.919 101.025 179.215 101.717C179.788 103.06 181.177 103.954 182.511 104.414C182.864 104.536 183.268 104.275 183.362 103.931C183.467 103.551 183.233 103.202 182.879 103.079C182.414 102.919 181.939 102.664 181.495 102.349C181.134 102.092 180.77 101.715 180.557 101.328C180.528 101.275 180.5 101.222 180.475 101.167C180.513 101.248 180.46 101.127 180.45 101.099C180.43 101.042 180.413 100.985 180.398 100.927C180.398 100.927 180.352 100.709 180.369 100.826C180.354 100.721 180.359 100.615 180.363 100.509C180.369 100.335 180.325 100.608 180.375 100.44C180.39 100.389 180.4 100.336 180.416 100.286C180.43 100.24 180.466 100.152 180.425 100.243C180.451 100.185 180.481 100.128 180.513 100.074C180.534 100.038 180.558 100.003 180.581 99.9681C180.508 100.078 180.616 99.9311 180.63 99.9151C180.641 99.9031 180.762 99.7911 180.697 99.8461C180.633 99.9001 180.761 99.8041 180.777 99.7941C180.802 99.7791 180.962 99.7181 180.833 99.7601C180.893 99.7411 180.952 99.7251 181.014 99.7121C181.38 99.6361 181.592 99.2051 181.498 98.8601C181.392 98.4791 181.012 98.2991 180.645 98.3761Z" fill="#421B36"/>
<path d="M223.752 93.5451C219.387 91.6571 218.906 93.4271 218.906 93.4271C214.886 90.5951 212.779 92.0111 212.779 92.0111C207.47 88.5891 203.994 92.0111 203.994 92.0111L201.383 91.5491C200.251 91.3491 199.081 91.3101 197.963 91.5771C194.078 92.5041 192.213 95.9291 191.949 97.7701C192.136 97.8061 197.813 97.9941 201.608 97.7421C204.557 97.9781 205.203 99.5861 205.203 99.5861C205.203 99.5861 207.209 108.158 211.601 108.175C212.898 108.18 213.512 107.275 213.811 106.185C213.957 107.221 214.522 108.282 216.104 108.716C219.618 109.679 219.426 107.103 219.426 107.103C219.426 107.103 219.569 108.406 222.985 107.98C226.4 107.555 223.989 101.568 223.989 101.568C223.989 101.568 227.646 105.579 231.54 104.518C235.433 103.456 228.118 95.4331 223.752 93.5451Z" fill="#944D4D"/>
<path d="M203.128 92.6662C209.468 93.9412 213.836 99.7432 213.324 106.192C213.253 107.08 214.639 107.076 214.709 106.192C215.267 99.1722 210.396 92.7192 203.496 91.3312C202.626 91.1562 202.254 92.4902 203.128 92.6662Z" fill="#421B36"/>
<path d="M212.429 92.4571C216.629 96.1071 218.82 101.662 218.26 107.197C218.17 108.083 219.555 108.076 219.644 107.197C220.237 101.338 217.851 95.3401 213.408 91.4791C212.738 90.8961 211.755 91.8711 212.429 92.4571Z" fill="#421B36"/>
<path d="M217.687 93.7541C221.145 95.1801 223.651 98.6771 223.932 102.398C223.999 103.281 225.383 103.288 225.316 102.398C224.985 98.0011 222.124 94.0971 218.055 92.4191C217.707 92.2751 217.298 92.5751 217.203 92.9031C217.09 93.2981 217.343 93.6121 217.687 93.7541Z" fill="#421B36"/>
<path d="M213.058 101.374C211.419 101.509 209.943 102.631 209.481 104.233C209.009 105.866 209.723 107.635 211.086 108.599C211.391 108.815 211.856 108.654 212.033 108.351C212.236 108.004 212.091 107.621 211.785 107.404C210.915 106.788 210.532 105.586 210.816 104.601C210.96 104.102 211.268 103.67 211.685 103.327C212.061 103.018 212.603 102.796 213.058 102.759C213.431 102.728 213.75 102.463 213.75 102.067C213.75 101.715 213.433 101.343 213.058 101.374Z" fill="#421B36"/>
<path d="M218.561 102.554C217.154 102.51 215.73 103.359 215.159 104.658C214.564 106.012 214.848 107.625 215.879 108.691C216.139 108.96 216.597 108.952 216.858 108.691C217.127 108.422 217.119 107.982 216.858 107.712C216.67 107.518 216.598 107.418 216.461 107.15C216.452 107.132 216.373 106.953 216.412 107.051C216.389 106.995 216.37 106.938 216.351 106.88C216.31 106.753 216.28 106.624 216.253 106.493C216.249 106.469 216.245 106.445 216.241 106.421C216.247 106.473 216.248 106.475 216.242 106.425C216.236 106.365 216.231 106.305 216.229 106.244C216.224 106.111 216.228 105.979 216.239 105.846C216.244 105.797 216.243 105.798 216.236 105.851C216.24 105.827 216.244 105.803 216.248 105.78C216.262 105.709 216.276 105.638 216.295 105.568C216.31 105.51 216.328 105.452 216.347 105.395C216.358 105.361 216.37 105.326 216.383 105.293C216.363 105.335 216.363 105.334 216.383 105.291C216.486 105.061 216.616 104.867 216.731 104.738C216.82 104.639 216.915 104.546 217.016 104.46C217.1 104.388 217.123 104.372 217.256 104.29C217.515 104.129 217.619 104.086 217.885 104.012C217.943 103.996 218.002 103.982 218.061 103.97C218.096 103.963 218.223 103.941 218.127 103.954C218.271 103.935 218.416 103.934 218.561 103.939C218.935 103.951 219.253 103.612 219.253 103.247C219.253 102.861 218.936 102.566 218.561 102.554Z" fill="#421B36"/>
<path d="M224.058 100.62C222.24 100.777 220.716 102.193 220.503 104.02C220.296 105.792 221.522 107.516 223.189 108.052C224.039 108.325 224.403 106.989 223.557 106.717C222.489 106.373 221.746 105.215 221.878 104.106C222.002 103.06 223.01 102.095 224.059 102.004C224.431 101.972 224.751 101.709 224.751 101.312C224.75 100.962 224.432 100.587 224.058 100.62Z" fill="#421B36"/>
<path d="M229.645 98.3761C228.997 98.5111 228.467 99.0051 228.205 99.6011C227.9 100.292 227.919 101.025 228.215 101.717C228.788 103.06 230.177 103.954 231.511 104.414C231.864 104.536 232.268 104.275 232.363 103.931C232.467 103.551 232.234 103.202 231.88 103.079C231.415 102.919 230.94 102.664 230.496 102.349C230.135 102.092 229.771 101.715 229.558 101.328C229.529 101.275 229.501 101.222 229.476 101.167C229.514 101.248 229.461 101.127 229.451 101.099C229.431 101.042 229.413 100.985 229.399 100.927C229.399 100.927 229.353 100.709 229.37 100.826C229.355 100.721 229.361 100.615 229.364 100.509C229.37 100.335 229.326 100.608 229.376 100.44C229.391 100.389 229.401 100.336 229.417 100.286C229.431 100.24 229.467 100.152 229.426 100.243C229.452 100.185 229.481 100.128 229.514 100.074C229.535 100.038 229.559 100.003 229.582 99.9681C229.509 100.078 229.617 99.9311 229.631 99.9151C229.642 99.9031 229.763 99.7911 229.698 99.8461C229.634 99.9001 229.762 99.8041 229.778 99.7941C229.803 99.7791 229.964 99.7181 229.834 99.7601C229.894 99.7411 229.953 99.7251 230.015 99.7121C230.381 99.6361 230.593 99.2051 230.498 98.8601C230.392 98.4791 230.013 98.2991 229.645 98.3761Z" fill="#421B36"/>
<path d="M190.772 203.431C188.66 208.151 90.47 205.284 85.744 202.379C81.538 199.791 83.677 142.396 84.196 129.902C84.26 128.366 84.296 127.509 84.296 127.509C84.177 125.154 86.345 121.057 89.914 120.536C110.911 117.436 183.06 120.173 186.684 123.059C187.394 123.627 188.041 126.113 188.605 129.902C191.464 148.727 192.538 199.502 190.772 203.431Z" fill="white"/>
<path d="M188.608 131.735H84.1992C84.2632 129.937 84.2992 128.934 84.2992 128.934C84.1802 126.176 86.3482 121.381 89.9172 120.771C110.914 117.142 183.063 120.346 186.687 123.725C187.397 124.389 188.043 127.299 188.608 131.735Z" fill="#A0D2F4"/>
<path d="M99.5796 128.329C100.374 128.329 101.019 127.685 101.019 126.89C101.019 126.095 100.374 125.451 99.5796 125.451C98.7849 125.451 98.1406 126.095 98.1406 126.89C98.1406 127.685 98.7849 128.329 99.5796 128.329Z" fill="white"/>
<path d="M94.5249 128.329C95.3197 128.329 95.9639 127.685 95.9639 126.89C95.9639 126.095 95.3197 125.451 94.5249 125.451C93.7302 125.451 93.0859 126.095 93.0859 126.89C93.0859 127.685 93.7302 128.329 94.5249 128.329Z" fill="white"/>
<path d="M156.494 206.492C149.4 206.492 141.934 206.39 134.842 206.224C112.159 205.691 87.9114 204.361 85.4544 202.851C81.1924 200.229 82.7674 150.946 83.6434 129.879L83.7434 127.487C83.6114 124.906 85.9734 120.553 89.8344 119.989C111.035 116.856 183.123 119.516 187.029 122.626C187.542 123.037 188.319 124.228 189.153 129.82C192.055 148.931 193.122 199.555 191.278 203.658C191.083 204.093 190.582 204.414 189.654 204.701C185.389 206.018 171.813 206.492 156.494 206.492ZM120.814 119.687C108.163 119.687 96.7604 120.086 89.9964 121.085C86.6294 121.577 84.7504 125.507 84.8504 127.483L84.7504 129.926C83.0254 171.446 83.5414 200.373 86.0354 201.908C88.1274 203.194 111.831 204.672 138.876 205.204C172.822 205.87 189.309 204.634 190.271 203.2C191.841 199.658 191.063 149.763 188.059 129.987C187.255 124.596 186.539 123.654 186.339 123.493C184.106 121.714 149.306 119.687 120.814 119.687Z" fill="#007CC3"/>
<path d="M126.337 164.351L120.424 128.169L135.325 116.744C155.167 116.529 160.276 132.33 160.276 132.33C164.478 132.612 168.681 132.895 172.883 133.177C173.395 133.211 173.949 133.263 174.334 133.616C175.074 134.295 174.704 135.533 174.219 136.408C172.578 139.361 170.195 141.87 167.36 143.629L167.563 145.834C169.084 152.19 167.46 159.213 163.333 164.127C159.206 169.041 152.683 171.719 146.343 171.101L141.748 186.083L118.633 181.396L126.337 164.351Z" fill="#FFBFBF"/>
<path d="M152.465 120.401C152.465 120.401 139.497 124.914 133.06 123.77C133.06 123.77 143.322 138.771 140.666 141.173C138.01 143.575 134.717 141.487 134.717 141.487C134.717 141.487 128.87 163.633 127.268 165.953C125.665 168.273 123.834 169.885 123.834 169.885C123.834 169.885 113.548 161.461 107.393 151.789C101.238 142.117 99.6493 126.377 108.789 123.157C108.789 123.157 121.769 102.353 148.225 108.91C148.225 108.91 153.012 111.107 154.732 114.424C156.452 117.744 157.061 120.025 152.465 120.401Z" fill="#421B36"/>
<path d="M125.305 145.858C125.072 143.8 125.57 141.553 127.081 140.137C128.592 138.721 135.59 137.955 136.704 142.799L133.714 153.374C131.963 153.239 128.505 151.942 127.344 150.625C126.183 149.309 125.503 147.603 125.305 145.858Z" fill="#FFBFBF"/>
<path d="M153.32 133.557C153.514 134.401 153.07 135.224 152.327 135.395C151.585 135.566 150.825 135.02 150.631 134.175C150.437 133.331 150.881 132.508 151.624 132.337C152.366 132.167 153.125 132.713 153.32 133.557Z" fill="#421B36"/>
<path d="M142.786 128.701C145.078 125.9 148.874 123.454 152.68 124.7C153.511 124.972 153.339 126.281 152.49 126.378C150.846 126.567 149.327 126.411 147.723 126.963C146.228 127.478 144.624 128.276 143.479 129.357C143.084 129.73 142.441 129.122 142.786 128.701Z" fill="#421B36"/>
<path d="M136.508 147.791C135.989 147.607 135.388 147.62 134.849 147.408C134.173 147.142 133.506 146.842 132.831 146.571C131.574 146.067 130.098 145.837 128.922 145.194C128.033 144.708 128.786 143.579 129.552 143.577C130.894 143.574 132.598 144.548 133.761 145.136C134.402 145.46 135.088 145.809 135.655 146.253C136.15 146.641 136.322 147.105 136.67 147.567C136.756 147.682 136.644 147.839 136.508 147.791Z" fill="#421B36"/>
<path d="M163.321 146.961C161.336 147.539 159.475 147.624 157.491 146.93C155.859 146.359 153.576 145.178 153.088 143.396C152.959 142.925 153.567 142.473 153.988 142.68C154.685 143.022 155.12 143.605 155.719 144.093C156.371 144.624 157.094 145.054 157.871 145.375C159.465 146.033 161.353 146.328 163.064 146.067C163.569 145.99 163.842 146.809 163.321 146.961Z" fill="#421B36"/>
<path d="M83.1933 203.136C83.1933 203.136 82.0343 168.733 137.413 177.014C156.589 179.882 162.753 181.33 168.62 188.77C174.486 196.211 177.42 205.939 177.42 205.939C177.42 205.939 93.6693 206.862 83.1933 203.136Z" fill="#007CC3"/>
<path d="M88.9629 197.396C88.6179 199.805 89.0469 202.242 90.2539 204.364C90.6949 205.138 91.8909 204.441 91.4489 203.665C90.4409 201.894 90.007 199.788 90.297 197.764C90.35 197.394 90.206 197.02 89.814 196.913C89.489 196.824 89.0159 197.024 88.9629 197.396Z" fill="#421B36"/>
<path d="M154.361 198.817C153.25 200.974 152.668 203.367 152.688 205.795C152.695 206.685 154.08 206.688 154.072 205.795C154.054 203.614 154.556 201.456 155.556 199.515C155.964 198.725 154.77 198.024 154.361 198.817Z" fill="#421B36"/>
<path d="M86.6794 192.365C108.558 196.447 130.879 198.066 153.117 197.118C159.49 196.846 165.852 196.36 172.194 195.676C173.07 195.582 173.08 194.196 172.194 194.292C150.217 196.662 127.991 196.559 106.04 193.942C99.6784 193.184 93.3454 192.205 87.0474 191.03C86.1764 190.867 85.8034 192.201 86.6794 192.365Z" fill="#A0D2F4"/>
<path d="M102.643 180.348C121.577 182.243 140.614 182.983 159.639 182.565C160.529 182.545 160.532 181.161 159.639 181.181C140.615 181.599 121.578 180.859 102.643 178.964C101.757 178.875 101.763 180.26 102.643 180.348Z" fill="#A0D2F4"/>
<path d="M285.751 93.3871C287.863 98.1071 386.053 95.2401 390.779 92.3351C394.985 89.7471 392.846 32.3521 392.327 19.8581C392.263 18.3221 392.227 17.4651 392.227 17.4651C392.346 15.1101 390.178 11.0131 386.609 10.4921C365.612 7.3921 293.463 10.1291 289.839 13.0151C289.129 13.5831 288.482 16.0691 287.918 19.8581C285.059 38.6831 283.985 89.4581 285.751 93.3871Z" fill="white"/>
<path d="M287.915 21.6911H392.324C392.26 19.8931 392.224 18.8901 392.224 18.8901C392.343 16.1321 390.175 11.3371 386.606 10.7271C365.609 7.09806 293.46 10.3021 289.836 13.6811C289.126 14.3451 288.48 17.2551 287.915 21.6911Z" fill="#A0D2F4"/>
<path d="M376.944 18.2852C376.149 18.2852 375.505 17.641 375.505 16.8462C375.505 16.0515 376.149 15.4072 376.944 15.4072C377.739 15.4072 378.383 16.0515 378.383 16.8462C378.383 17.641 377.739 18.2852 376.944 18.2852Z" fill="white"/>
<path d="M381.998 18.2852C381.204 18.2852 380.56 17.641 380.56 16.8462C380.56 16.0515 381.204 15.4072 381.998 15.4072C382.793 15.4072 383.438 16.0515 383.438 16.8462C383.438 17.641 382.793 18.2852 381.998 18.2852Z" fill="white"/>
<path d="M320.029 96.448C327.123 96.448 334.589 96.346 341.681 96.18C364.364 95.647 388.612 94.317 391.069 92.807C395.331 90.185 393.756 40.902 392.88 19.835L392.78 17.443C392.912 14.862 390.55 10.509 386.689 9.94503C365.488 6.81203 293.4 9.47204 289.494 12.582C288.981 12.993 288.204 14.184 287.37 19.776C284.468 38.887 283.401 89.511 285.245 93.614C285.44 94.049 285.941 94.37 286.869 94.657C291.134 95.974 304.71 96.448 320.029 96.448ZM355.709 9.64303C368.36 9.64303 379.763 10.042 386.527 11.041C389.894 11.533 391.773 15.463 391.673 17.439L391.773 19.882C393.498 61.402 392.982 90.329 390.488 91.864C388.396 93.15 364.692 94.628 337.647 95.16C303.701 95.826 287.214 94.59 286.252 93.156C284.682 89.614 285.46 39.719 288.464 19.943C289.268 14.552 289.984 13.61 290.184 13.449C292.417 11.67 327.217 9.64303 355.709 9.64303Z" fill="#007CC3"/>
<path d="M350.187 54.3072L356.1 18.1252L341.199 6.70017C321.357 6.48517 316.248 22.2862 316.248 22.2862C312.046 22.5682 307.843 22.8512 303.641 23.1332C303.129 23.1672 302.575 23.2192 302.19 23.5722C301.45 24.2512 301.82 25.4892 302.305 26.3642C303.946 29.3172 306.329 31.8262 309.164 33.5852L308.961 35.7902C307.44 42.1462 309.064 49.1692 313.191 54.0832C317.318 58.9972 323.841 61.6752 330.181 61.0572L334.776 76.0392L357.891 71.3522L350.187 54.3072Z" fill="#FFBFBF"/>
<path d="M324.058 10.3571C324.058 10.3571 337.026 14.8701 343.463 13.7261C343.463 13.7261 333.201 28.7271 335.857 31.1291C338.513 33.5311 341.806 31.4431 341.806 31.4431C341.806 31.4431 347.653 53.5891 349.255 55.9091C350.858 58.2291 352.689 59.8411 352.689 59.8411C352.689 59.8411 362.975 51.4171 369.13 41.7451C375.285 32.0731 376.874 16.3331 367.734 13.1131C367.734 13.1131 354.754 -7.6909 328.298 -1.1339C328.298 -1.1339 323.511 1.06309 321.791 4.38009C320.071 7.70009 319.462 9.98109 324.058 10.3571Z" fill="#421B36"/>
<path d="M351.219 35.8142C351.452 33.7562 350.954 31.5092 349.443 30.0932C347.932 28.6772 340.934 27.9112 339.82 32.7552L342.81 43.3302C344.561 43.1952 348.019 41.8982 349.18 40.5812C350.341 39.2652 351.021 37.5592 351.219 35.8142Z" fill="#FFBFBF"/>
<path d="M323.203 23.5132C323.009 24.3572 323.453 25.1802 324.196 25.3512C324.938 25.5222 325.698 24.9762 325.892 24.1312C326.086 23.2872 325.642 22.4642 324.899 22.2932C324.157 22.1232 323.398 22.6692 323.203 23.5132Z" fill="#421B36"/>
<path d="M333.738 18.6571C331.446 15.8561 327.65 13.4101 323.844 14.6561C323.013 14.9281 323.185 16.2371 324.034 16.3341C325.678 16.5231 327.197 16.3671 328.801 16.9191C330.296 17.4341 331.9 18.2321 333.045 19.3131C333.44 19.6861 334.083 19.0781 333.738 18.6571Z" fill="#421B36"/>
<path d="M340.015 37.7472C340.534 37.5632 341.135 37.5762 341.674 37.3642C342.35 37.0982 343.017 36.7982 343.692 36.5272C344.949 36.0232 346.425 35.7932 347.601 35.1502C348.49 34.6642 347.738 33.5352 346.972 33.5332C345.63 33.5302 343.926 34.5042 342.763 35.0922C342.122 35.4162 341.435 35.7652 340.868 36.2092C340.373 36.5972 340.201 37.0612 339.853 37.5232C339.767 37.6382 339.879 37.7952 340.015 37.7472Z" fill="#421B36"/>
<path d="M313.203 36.9171C315.188 37.4951 317.049 37.5801 319.033 36.8861C320.665 36.3151 322.948 35.1341 323.436 33.3521C323.565 32.8811 322.957 32.4291 322.536 32.6361C321.839 32.9781 321.404 33.5611 320.805 34.0491C320.153 34.5801 319.43 35.0101 318.653 35.3311C317.059 35.9891 315.171 36.2841 313.46 36.0231C312.955 35.9461 312.682 36.7651 313.203 36.9171Z" fill="#421B36"/>
<path d="M393.33 93.0922C393.33 93.0922 394.489 58.6892 339.11 66.9702C319.934 69.8382 313.77 71.2862 307.903 78.7262C302.037 86.1672 299.103 95.8952 299.103 95.8952C299.103 95.8952 382.854 96.8182 393.33 93.0922Z" fill="#007CC3"/>
<path d="M387.56 87.3522C387.905 89.7612 387.476 92.1982 386.269 94.3202C385.828 95.0942 384.632 94.3972 385.074 93.6212C386.082 91.8502 386.516 89.7442 386.226 87.7202C386.173 87.3502 386.317 86.9761 386.709 86.8691C387.034 86.7801 387.507 86.9802 387.56 87.3522Z" fill="#421B36"/>
<path d="M322.162 88.7729C323.273 90.9299 323.855 93.323 323.835 95.751C323.828 96.641 322.443 96.644 322.451 95.751C322.469 93.57 321.967 91.412 320.967 89.471C320.559 88.681 321.753 87.9799 322.162 88.7729Z" fill="#421B36"/>
<path d="M389.844 82.321C367.965 86.403 345.644 88.0219 323.406 87.0739C317.033 86.8019 310.671 86.3159 304.329 85.6319C303.453 85.5379 303.443 84.152 304.329 84.248C326.306 86.618 348.532 86.5149 370.483 83.8979C376.845 83.1399 383.178 82.1609 389.476 80.9859C390.347 80.8229 390.72 82.157 389.844 82.321Z" fill="#A0D2F4"/>
<path d="M373.881 70.3041C354.947 72.1991 335.91 72.9391 316.885 72.5211C315.995 72.5011 315.992 71.1171 316.885 71.1371C335.909 71.5551 354.946 70.8151 373.881 68.9201C374.767 68.8311 374.761 70.2161 373.881 70.3041Z" fill="#A0D2F4"/>
<path d="M313.979 14.234C314.262 15.159 315.973 15.211 316.544 14.303C318.26 11.573 320.155 6.46999 320.155 6.46999C321.109 6.46899 331.822 6.24599 332.794 -0.0630054C333.766 -6.37201 335.135 -23.883 328.668 -28.08C323.347 -31.534 296.301 -28.587 294.708 -26.11C292.194 -22.2 291.3 4.39099 296.439 6.49399C298.46 7.32099 312.317 7.25599 312.317 7.25599C312.317 7.25599 313.176 11.604 313.979 14.234Z" fill="#007CC3"/>
<path d="M317.392 -15.8001C317.392 -15.8001 314.222 -26.8281 312.482 -24.3541C310.742 -21.8811 310.31 -15.4821 310.31 -15.4821L304.235 -15.0491C301.907 -14.8581 297.317 -13.9851 303.907 -11.2091L307.399 -9.41013C307.399 -9.41013 305.374 -1.07313 306.553 -0.151127C307.658 0.712873 313.378 -5.60113 313.378 -5.60113C313.378 -5.60113 319.434 3.35888 319.996 0.0948753C320.558 -3.17012 319.351 -9.40013 319.351 -9.40013C319.351 -9.40013 329.669 -14.8391 325.845 -15.8411C325.033 -16.0551 317.392 -15.8001 317.392 -15.8001Z" fill="white"/>
<path d="M305.617 1.0699C305.073 0.0648975 309.433 -5.8661 310.205 -6.8941C310.191 -7.7351 309.209 -11.5161 308.856 -12.2971L308.543 -12.4541L308.687 -12.9521C308.869 -13.5181 308.87 -13.5311 314.758 -12.6201C315.377 -13.6241 317.072 -16.3261 317.841 -17.0791L318.68 -16.2231C318.013 -15.5691 316.211 -12.7041 315.573 -11.6551L315.366 -11.3121L314.97 -11.3741C313.221 -11.6451 311.309 -11.9281 310.204 -12.0751C310.756 -10.5031 311.255 -7.9971 311.261 -7.9621C311.465 -6.8811 311.454 -6.5111 311.213 -6.2441C310.69 -5.6491 306.879 -0.0501041 306.73 0.757896C306.73 0.757896 306.75 0.640898 306.673 0.496899L305.617 1.0699Z" fill="#007CC3"/>
<path d="M198.718 53.7379C197.654 53.5779 197.317 51.7039 198.223 50.9269C200.946 48.5929 206.251 45.6739 206.251 45.6739C206.097 44.6239 204.591 32.7999 211.375 30.6999C218.158 28.5999 248.309 25.0329 253.985 31.4629C258.654 36.7529 259.83 66.9939 257.365 69.1509C253.474 72.5559 213.253 77.0829 210.1 71.7719C208.86 69.6839 206.668 54.4259 206.668 54.4259C206.668 54.4259 201.743 54.1919 198.718 53.7379Z" fill="#007CC3"/>
<path d="M226.629 43.277C226.629 43.277 231.117 27.666 233.58 31.168C236.043 34.669 236.654 43.727 236.654 43.727L245.253 44.34C248.549 44.611 254.212 45.324 244.884 49.254L240.139 51.364C240.139 51.364 242.644 64.473 240.975 65.778C239.41 67.002 233.107 57.116 233.107 57.116C233.107 57.116 223.739 70.399 222.943 65.778C222.147 61.157 224.129 50.784 224.129 50.784C224.129 50.784 209.249 44.638 214.662 43.218C215.811 42.916 226.629 43.277 226.629 43.277Z" fill="white"/>
<path d="M241.042 37.2971C242.087 35.4771 243.369 33.8781 244.886 32.4301C245.544 31.8021 244.517 30.7741 243.887 31.4321C242.345 33.0431 241.166 34.9331 240.349 37.0051C240.189 37.4101 240.833 37.6611 241.042 37.2971Z" fill="#A0D2F4"/>
<path d="M243.448 39.993C245.687 39.387 248.019 38.583 250.123 37.602C251.078 37.157 250.246 35.772 249.3 36.194C247.234 37.117 245.157 38.333 243.28 39.594C243.081 39.729 243.201 40.06 243.448 39.993Z" fill="#A0D2F4"/>
<path d="M218.681 35.5048C220.413 36.5548 222.043 38.0079 223.936 38.7459C224.616 39.0109 225.202 37.9759 224.653 37.5139C223.101 36.2069 221.042 35.4729 219.294 34.4559C218.617 34.0619 218.013 35.0998 218.681 35.5048Z" fill="#A0D2F4"/>
<path d="M212.287 59.221C214.223 58.41 216.222 57.648 218.042 56.586C218.855 56.112 218.143 54.977 217.319 55.349C215.443 56.195 213.697 57.352 211.955 58.433C211.561 58.678 211.819 59.417 212.287 59.221Z" fill="#A0D2F4"/>
<path d="M215.963 65.1219C217.103 63.6619 218.225 62.1799 219.245 60.6319C219.742 59.8779 218.55 59.2029 218.044 59.9299C217.015 61.4079 216.078 62.9549 215.173 64.5119C214.895 64.9889 215.602 65.5849 215.963 65.1219Z" fill="#A0D2F4"/>
<path d="M233.7 65.8829C233.296 66.8199 233.208 67.8189 233.482 68.8069C233.703 69.6039 234.951 69.1079 234.535 68.3629C234.12 67.6179 233.963 66.8289 234.068 65.9829C234.091 65.7929 233.775 65.7069 233.7 65.8829Z" fill="#A0D2F4"/>
<path d="M244.176 56.7849C245.146 58.5399 246.694 60.8739 248.605 61.6729C249.229 61.9339 249.895 61.0419 249.502 60.5059C248.924 59.7179 248.081 59.1679 247.382 58.4899C246.626 57.7569 245.955 56.9539 245.323 56.1139C244.823 55.4469 243.751 56.0149 244.176 56.7849Z" fill="#A0D2F4"/>
<path d="M247.032 55.838C249.63 56.683 252.214 57.567 254.814 58.406C255.989 58.785 256.52 56.881 255.325 56.554C252.693 55.835 250.05 55.161 247.416 54.447C246.514 54.202 246.153 55.552 247.032 55.838Z" fill="#A0D2F4"/>
<path d="M175.318 150.88C173.761 150.708 173.269 148.686 174.594 147.848C178.577 145.331 186.336 142.181 186.336 142.181C186.111 141.049 183.909 128.294 193.829 126.029C203.75 123.764 262.853 120.191 271.153 127.127C277.982 132.834 278.565 156.947 274.959 159.274C269.268 162.947 195.437 167.556 190.826 161.826C189.013 159.573 186.944 151.623 186.944 151.623C186.944 151.623 179.742 151.369 175.318 150.88Z" fill="#007CC3"/>
<path d="M204.58 140.5C204.58 140.5 207.307 131.015 208.803 133.142C210.299 135.269 210.671 140.773 210.671 140.773L215.896 141.146C217.899 141.31 221.339 141.744 215.672 144.132L212.789 145.414C212.789 145.414 214.311 153.379 213.297 154.172C212.346 154.916 208.517 148.909 208.517 148.909C208.517 148.909 202.825 156.98 202.341 154.172C201.858 151.364 203.062 145.062 203.062 145.062C203.062 145.062 194.021 141.328 197.31 140.465C198.007 140.281 204.58 140.5 204.58 140.5Z" fill="white"/>
<path d="M230.986 140.5C230.986 140.5 233.713 131.015 235.209 133.142C236.705 135.269 237.077 140.773 237.077 140.773L242.302 141.146C244.304 141.31 247.745 141.744 242.078 144.132L239.195 145.414C239.195 145.414 240.717 153.379 239.703 154.172C238.752 154.916 234.923 148.909 234.923 148.909C234.923 148.909 229.231 156.98 228.747 154.172C228.263 151.364 229.468 145.062 229.468 145.062C229.468 145.062 220.427 141.328 223.716 140.465C224.414 140.281 230.986 140.5 230.986 140.5Z" fill="white"/>
<path d="M255.565 140.5C255.565 140.5 258.292 131.015 259.788 133.142C261.284 135.269 261.656 140.773 261.656 140.773L266.881 141.146C268.884 141.31 272.324 141.744 266.657 144.132L263.774 145.414C263.774 145.414 265.296 153.379 264.282 154.172C263.331 154.916 259.501 148.909 259.501 148.909C259.501 148.909 253.809 156.98 253.326 154.172C252.842 151.364 254.047 145.062 254.047 145.062C254.047 145.062 245.006 141.328 248.295 140.465C248.992 140.281 255.565 140.5 255.565 140.5Z" fill="white"/>
<path d="M425.242 99.8889C421.25 89.1439 411.135 77.8799 386.57 83.0649C380.141 84.9649 373.968 88.4229 370.001 93.8279C366.021 99.2499 364.574 106.22 364.844 112.94C365.097 119.225 366.968 125.777 371.597 130.036C375.985 134.074 381.959 135.363 388.054 135.503C387.656 137.034 387.117 138.528 386.41 139.944C386.18 140.404 385.93 140.876 385.914 141.39C385.898 141.904 386.204 142.47 386.711 142.555C386.972 142.599 387.236 142.512 387.484 142.421C391.306 141.021 394.651 138.396 396.984 135.064C403.256 134.418 409.607 133.241 414.948 129.93C424.692 123.891 429.234 110.635 425.242 99.8889Z" fill="#A0D2F4"/>
<path d="M388.98 98.9229C388.502 98.9229 388.09 98.7579 387.745 98.4249C387.399 98.0929 387.227 97.7019 387.227 97.2499C387.227 97.0909 387.26 96.9319 387.327 96.7719C387.392 96.6129 387.506 96.3999 387.665 96.1349C388.382 95.0199 389.483 94.1439 390.971 93.5059C392.458 92.8689 394.051 92.5769 395.751 92.6299C397.423 92.6569 398.87 93.0149 400.091 93.7049C401.312 94.3949 402.262 95.3579 402.939 96.5929C403.616 97.8279 403.955 99.2809 403.955 100.954C403.955 102.786 403.557 104.486 402.761 106.052C401.964 107.619 400.896 108.887 399.554 109.855C398.213 110.825 396.719 111.362 395.074 111.468L394.875 115.411C394.847 115.915 394.669 116.314 394.337 116.605C394.005 116.897 393.587 117.057 393.082 117.083C392.657 117.11 392.265 116.951 391.908 116.605C391.549 116.261 391.384 115.848 391.41 115.37L391.648 110.193C391.701 109.583 391.907 109.118 392.265 108.8C392.624 108.482 393.175 108.322 393.919 108.322C395.087 108.322 396.169 107.99 397.164 107.327C398.16 106.663 398.963 105.794 399.574 104.718C400.184 103.643 400.49 102.468 400.49 101.194C400.49 100.079 400.284 99.1369 399.873 98.3669C399.461 97.5969 398.883 97.0059 398.14 96.5949C397.397 96.1829 396.494 95.9769 395.432 95.9769C394.37 95.9769 393.414 96.1429 392.564 96.4749C391.714 96.8069 391.064 97.2649 390.612 97.8489C390.346 98.1669 390.101 98.4259 389.876 98.6259C389.65 98.8239 389.351 98.9229 388.98 98.9229ZM392.644 119.513C392.963 119.513 393.314 119.593 393.699 119.752C394.084 119.912 394.422 120.17 394.715 120.529C395.008 120.888 395.153 121.385 395.153 122.022C395.153 122.527 395.034 122.932 394.795 123.237C394.555 123.542 394.263 123.761 393.919 123.894C393.573 124.027 393.241 124.093 392.923 124.093C392.259 124.093 391.668 123.867 391.15 123.416C390.632 122.965 390.374 122.42 390.374 121.783C390.399 121.2 390.612 120.675 391.011 120.21C391.41 119.746 391.953 119.513 392.644 119.513Z" fill="white"/>
<path d="M336.931 188.969C336.931 188.969 351.727 192.506 363.372 203.481C372.154 211.758 385.662 292.16 377.574 303.732C369.486 315.304 364.14 308.635 352.831 302.981C339.588 296.36 292.289 286.766 292.289 286.766C292.289 286.766 282.034 252.294 281.789 233.177C281.625 220.391 284.127 197.715 293.686 191.833C303.245 185.951 320.754 183.332 336.931 188.969Z" fill="#A0D2F4"/>
<path d="M297.549 230.011C297.549 230.011 296.903 216.509 299.037 213.963C301.534 210.983 320.076 215.206 321.4 219.056C322.724 222.906 325.526 242.723 319.15 242.241C312.774 241.759 297.549 230.011 297.549 230.011Z" fill="white"/>
<path d="M284.919 256.54C282.68 238.448 282.988 221.565 286.419 203.635C286.557 202.915 285.516 202.607 285.308 203.329C280.421 220.252 280.008 239.571 284.624 256.58C284.666 256.738 284.941 256.712 284.919 256.54Z" fill="#421B36"/>
<path d="M332.363 171.12L343.84 134.383L330.035 120.311C309.443 117.163 301.805 132.835 301.805 132.835C297.395 132.509 292.986 132.183 288.576 131.858C288.039 131.818 287.455 131.791 287.004 132.1C286.135 132.696 286.336 134.038 286.713 135.019C287.983 138.33 290.091 141.289 292.778 143.535L292.242 145.797C289.725 152.179 290.378 159.719 293.943 165.434C297.508 171.15 303.894 174.894 310.575 175.187L313.143 191.437L337.86 189.972L332.363 171.12Z" fill="#CC8770"/>
<path d="M307.332 123.308C307.816 123.469 308.262 125.916 320.802 124.13C320.802 124.13 324.495 128.19 331.354 127.949C331.354 127.949 318.477 142.029 320.884 144.917C323.291 147.805 327.022 146.12 327.022 146.12C327.022 146.12 329.836 170 331.16 172.648C332.484 175.296 333.622 175.436 333.622 175.436C333.622 175.436 346.082 170 353.905 160.854C361.727 151.708 365.699 135.582 356.673 130.888C356.673 130.888 357.045 110.349 328.579 113.266C328.579 113.266 321.653 103.931 317.922 105.856C314.191 107.782 313.349 113.558 313.349 113.558C313.349 113.558 306.73 110.549 304.805 114.28C302.879 118.013 305.888 122.827 307.332 123.308Z" fill="#421B36"/>
<path d="M336.163 152.051C336.708 149.946 336.522 147.538 335.16 145.843C333.798 144.149 326.637 142.322 324.766 147.192L326.315 158.624C328.154 158.742 331.94 157.903 333.341 156.705C334.742 155.508 335.701 153.835 336.163 152.051Z" fill="#CC8770"/>
<path d="M308.854 135.137C308.528 135.986 308.868 136.907 309.615 137.194C310.361 137.481 311.231 137.025 311.557 136.176C311.883 135.327 311.542 134.406 310.796 134.119C310.05 133.832 309.18 134.288 308.854 135.137Z" fill="#421B36"/>
<path d="M320.517 131.641C318.548 128.392 314.963 125.291 310.822 126.024C309.918 126.184 309.904 127.57 310.773 127.796C312.454 128.234 314.056 128.296 315.641 129.107C317.119 129.862 318.668 130.929 319.699 132.221C320.055 132.666 320.813 132.13 320.517 131.641Z" fill="#421B36"/>
<path d="M324.232 152.409C324.798 152.294 325.421 152.397 326.012 152.256C326.754 152.079 327.491 151.866 328.233 151.684C329.613 151.346 331.182 151.324 332.499 150.828C333.495 150.454 332.878 149.169 332.083 149.054C330.688 148.853 328.774 149.614 327.478 150.054C326.764 150.297 325.999 150.558 325.345 150.936C324.773 151.267 324.526 151.723 324.096 152.153C323.99 152.26 324.083 152.439 324.232 152.409Z" fill="#421B36"/>
<g opacity="0.2">
<path d="M320.314 148.007C319.828 149.27 317.284 149.468 314.631 148.448C311.978 147.429 310.22 145.578 310.706 144.315C311.192 143.052 313.736 142.854 316.389 143.874C319.042 144.893 320.799 146.744 320.314 148.007Z" fill="#421B36"/>
</g>
<path d="M296.484 147.595C298.462 148.489 300.384 148.851 302.549 148.422C304.329 148.069 306.876 147.178 307.646 145.398C307.85 144.927 307.285 144.368 306.816 144.521C306.041 144.774 305.503 145.316 304.808 145.735C304.052 146.19 303.237 146.531 302.382 146.75C300.629 147.2 298.622 147.227 296.882 146.704C296.369 146.549 295.965 147.361 296.484 147.595Z" fill="#421B36"/>
<path d="M356.139 131.622C358.406 129.842 360.036 127.235 360.332 124.334C360.411 123.562 359.135 123.393 358.976 124.15C358.42 126.788 357.479 129.097 355.603 131.086C355.259 131.45 355.765 131.916 356.139 131.622Z" fill="#421B36"/>
<path d="M355.275 133.24C358.183 132.458 361.043 132.274 363.989 132.956C364.9 133.167 365.278 131.733 364.373 131.564C361.197 130.972 358.041 131.148 355.046 132.408C354.552 132.617 354.721 133.389 355.275 133.24Z" fill="#421B36"/>
<path d="M313.46 187.159C313.088 187.248 303.157 191.275 310.077 195.487C316.997 199.699 336.832 190.093 336.832 190.093C336.832 190.093 323.763 184.698 313.46 187.159Z" fill="#CC8770"/>
<path d="M310.472 176.824C311.2 182.127 311.928 187.43 312.656 192.734C312.777 193.613 314.111 193.239 313.991 192.366C313.263 187.063 312.535 181.76 311.807 176.456C311.686 175.577 310.352 175.951 310.472 176.824Z" fill="#421B36"/>
<path d="M303.5 173.92C307.34 177.13 314.248 177.597 318.911 176.302C319.537 176.128 319.442 175.065 318.752 175.129C316.318 175.355 313.955 175.659 311.507 175.455C308.757 175.226 306.231 174.258 303.534 173.859C303.504 173.855 303.469 173.894 303.5 173.92Z" fill="#421B36"/>
<path d="M224.447 232.988C221.069 234.246 219.094 237.748 219.715 241.299C221.99 254.317 229.25 284.141 248.012 284.014C272.009 283.853 286.035 246.046 286.035 246.046L294.362 191.438C282.653 195.794 266.484 224.108 251.326 243.439C251.326 243.439 251.575 229.636 241.452 229.43C235.623 229.312 229.01 231.289 224.447 232.988Z" fill="#A0D2F4"/>
<path d="M235.669 184.28C235.669 184.28 243.547 179.159 251.583 183.344C259.619 187.529 279.698 214.915 279.195 215.083C278.693 215.25 273.671 228.141 273.671 228.141L270.155 223.788C270.155 223.788 268.314 228.308 263.291 225.964C258.269 223.62 253.581 213.911 253.581 213.911C253.581 213.911 255.255 219.101 251.739 218.933C248.223 218.766 245.043 212.069 246.382 209.893C246.382 209.893 241.527 205.206 244.875 201.523C244.875 201.523 241.025 200.016 242.866 197.003C244.708 193.99 251.236 191.813 251.236 191.813C251.236 191.813 249.823 189.357 245.303 188.635C240.783 187.914 238.661 190.226 236.513 190.16C234.493 190.098 231.986 186.791 235.669 184.28Z" fill="#CC8770"/>
<path d="M244.713 202.291C247.038 199.624 250.49 198.151 254.025 198.328C254.915 198.373 254.913 196.988 254.025 196.944C250.158 196.75 246.279 198.393 243.734 201.312C243.151 201.981 244.127 202.965 244.713 202.291Z" fill="#421B36"/>
<path d="M247.037 210.321C248.777 207.23 252.581 205.528 256.044 206.34C256.911 206.543 257.28 205.209 256.412 205.005C252.354 204.053 247.891 205.981 245.841 209.622C245.404 210.4 246.599 211.099 247.037 210.321Z" fill="#421B36"/>
<path d="M252.254 212.285C252.728 213.654 253.202 215.022 253.675 216.391C253.793 216.732 254.155 216.995 254.527 216.874C254.865 216.765 255.137 216.389 255.01 216.023C254.536 214.654 254.062 213.286 253.589 211.917C253.471 211.576 253.109 211.313 252.738 211.434C252.4 211.543 252.127 211.919 252.254 212.285Z" fill="#421B36"/>
<path d="M247.466 194.245C251.122 192.817 255.124 192.572 258.918 193.585C259.78 193.815 260.147 192.48 259.286 192.25C255.271 191.178 250.971 191.396 247.097 192.91C246.277 193.23 246.634 194.57 247.466 194.245Z" fill="#421B36"/>
<path d="M273.261 239.53C273.946 240.088 299.352 266.177 320.431 269.608C341.509 273.039 363.763 239.132 367.036 228.348C370.309 217.564 363.995 196.49 351.636 198.696C339.277 200.902 322.231 233.745 322.231 233.745C322.231 233.745 283.866 210.677 281.17 211.902C278.474 213.128 264.511 232.406 273.261 239.53Z" fill="#A0D2F4"/>
<path d="M366.367 228.164C364.487 234.258 360.667 239.965 356.985 245.094C351.958 252.097 345.999 258.789 338.824 263.65C335.611 265.826 332.099 267.645 328.309 268.561C324.396 269.507 320.587 269.151 316.74 268.078C307.959 265.628 299.954 260.581 292.66 255.239C286.853 250.986 281.358 246.299 276.142 241.342C275.104 240.356 273.977 239.39 273 238.343C270.647 235.821 270.862 232.077 271.655 228.964C272.572 225.36 274.293 221.97 276.274 218.841C277.648 216.67 279.175 214.392 281.156 212.721C281.5 212.431 281.444 212.5 282.005 212.64C282.761 212.83 283.494 213.132 284.21 213.435C286.567 214.432 288.849 215.615 291.116 216.8C301.355 222.153 311.334 228.03 321.247 233.961C321.459 234.088 321.67 234.214 321.882 234.341C322.231 234.551 322.605 234.388 322.829 234.093C328.333 226.828 333.861 219.565 339.638 212.514C340.838 211.049 342.018 209.473 343.425 208.195C344.086 207.595 343.105 206.618 342.446 207.216C341.262 208.292 340.258 209.599 339.241 210.827C337.477 212.959 335.757 215.126 334.045 217.3C330.632 221.635 327.265 226.007 323.916 230.393C323.154 231.392 322.392 232.391 321.633 233.393C321.949 233.31 322.264 233.227 322.58 233.145C313.261 227.542 303.855 222.048 294.272 216.907C291.62 215.484 288.951 214.078 286.216 212.82C284.848 212.191 283.108 211.175 281.549 211.164C279.924 211.152 278.476 213.432 277.61 214.541C275.384 217.391 273.477 220.53 272.014 223.838C270.576 227.09 269.375 230.759 269.809 234.361C270.116 236.915 271.35 238.671 273.162 240.39C277.503 244.508 281.889 248.542 286.562 252.288C293.895 258.166 301.774 263.657 310.469 267.322C314.323 268.947 318.518 270.369 322.734 270.528C326.627 270.675 330.46 269.631 333.972 268.012C341.951 264.334 348.557 257.844 354.073 251.138C358.89 245.282 363.333 238.824 366.417 231.871C366.901 230.78 367.351 229.672 367.703 228.53C367.965 227.679 366.63 227.314 366.367 228.164Z" fill="#421B36"/>
<path d="M347.519 206.665C356.834 207.856 364.27 214.076 366.512 223.185C366.706 223.972 367.95 223.634 367.728 222.85C365.049 213.367 357.367 206.852 347.518 206.432C347.365 206.425 347.374 206.647 347.519 206.665Z" fill="#421B36"/>
<path d="M209.22 205.025C208.885 205.541 224.287 234.837 226.296 237.348C228.305 239.859 241.345 238.512 240.935 233.745C240.525 228.978 239.688 223.286 239.688 223.286L215.079 196.668L209.22 205.025Z" fill="#CC8770"/>
<path d="M203.96 177.362C203.36 177.946 217.738 223.942 225.107 225.311C232.476 226.681 253.009 227.642 251.335 223.122C249.661 218.602 237.381 178.956 233.029 176.947C228.677 174.938 206.329 175.056 203.96 177.362Z" fill="#421B36"/>
<path d="M222.601 184.278C222.995 185.692 222.643 187.026 221.814 187.257C220.985 187.488 219.993 186.529 219.599 185.115C219.205 183.701 219.557 182.367 220.386 182.136C221.215 181.905 222.207 182.864 222.601 184.278Z" fill="white"/>
<path d="M213.963 214.848C213.963 214.848 228.808 205.875 228.138 202.862C227.468 199.849 226.52 198.184 220.27 201.69L218.338 202.862C218.338 202.862 224.239 197.282 224.623 195.998C225.081 194.464 225.301 190.935 220.949 191.438C220.949 191.438 222.782 186.958 220.438 186.289C218.094 185.619 211.733 190.474 211.733 190.474C211.733 190.474 219.908 183.636 216.998 180.194C215 177.83 211.609 180.573 209.536 183.222C206.943 186.535 205.037 192.006 204.869 195.843C204.702 199.681 206.711 199.513 206.711 199.513C206.711 199.513 203.858 203.481 208.268 204.748C207.914 208.683 209.662 212.688 213.963 214.848Z" fill="#CC8770"/>
<path d="M223.755 198.541C221.27 199.756 219.014 201.417 216.927 203.222C214.818 205.048 212.866 207.065 211.134 209.252C210.587 209.943 211.56 210.929 212.113 210.231C215.43 206.04 219.617 202.1 224.453 199.736C225.254 199.345 224.553 198.151 223.755 198.541Z" fill="#421B36"/>
<path d="M221.613 190.434C216.378 194.282 210.78 198.55 207.669 204.401C207.251 205.187 208.446 205.888 208.864 205.1C211.861 199.464 217.268 195.337 222.312 191.63C223.022 191.107 222.333 189.905 221.613 190.434Z" fill="#421B36"/>
<path d="M206.995 200.494C208.288 195.742 211.186 191.485 215.171 188.581C215.884 188.061 215.194 186.86 214.472 187.386C210.19 190.507 207.053 195.008 205.66 200.126C205.426 200.987 206.761 201.354 206.995 200.494Z" fill="#421B36"/>
<path d="M213.577 189.596C214.748 190.724 216.563 191.132 218.083 190.511C219.615 189.886 220.642 188.396 220.727 186.75C220.746 186.376 220.395 186.058 220.035 186.058C219.644 186.058 219.362 186.375 219.343 186.75C219.29 187.768 218.6 188.798 217.636 189.209C216.612 189.645 215.365 189.396 214.556 188.617C213.914 187.998 212.934 188.976 213.577 189.596Z" fill="#421B36"/>
<path d="M217.56 194.649C217.978 195.673 218.953 196.018 219.999 196.021C220.97 196.024 221.971 195.873 222.837 195.412C223.616 194.996 224.258 194.305 224.534 193.459C224.827 192.56 224.616 191.576 224.01 190.863C223.768 190.578 223.28 190.614 223.031 190.863C222.749 191.145 222.788 191.556 223.031 191.842C223.314 192.175 223.346 192.683 223.186 193.129C223.02 193.591 222.598 193.971 222.138 194.216C221.58 194.514 220.926 194.609 220.301 194.631C219.96 194.643 219.622 194.647 219.292 194.553C219.199 194.526 219.122 194.495 219.012 194.409C219.053 194.441 218.917 194.308 218.917 194.308C218.97 194.365 218.863 194.201 218.896 194.281C218.755 193.935 218.436 193.69 218.044 193.798C217.716 193.887 217.417 194.301 217.56 194.649Z" fill="#421B36"/>
<path d="M221.086 201.701C221.251 202.544 221.91 203.194 222.69 203.498C223.56 203.837 224.549 203.699 225.392 203.351C226.02 203.092 226.626 202.752 227.17 202.343C227.744 201.911 228.338 201.376 228.379 200.609C228.399 200.235 228.047 199.917 227.687 199.917C227.296 199.917 227.015 200.234 226.995 200.609C227.004 200.446 227.013 200.583 226.985 200.618C226.942 200.672 227.042 200.549 226.962 200.648C226.964 200.645 226.863 200.787 226.899 200.743C226.939 200.694 226.825 200.822 226.814 200.834C226.648 201.008 226.481 201.144 226.369 201.225C225.956 201.524 225.507 201.787 225.046 202.004C224.529 202.247 223.907 202.403 223.341 202.257C222.86 202.133 222.515 201.812 222.421 201.334C222.349 200.967 221.91 200.757 221.57 200.851C221.187 200.955 221.014 201.333 221.086 201.701Z" fill="#421B36"/>
<path d="M210.19 183.621C211.549 184.19 213.131 184.109 214.443 183.453C215.629 182.86 216.509 181.79 216.959 180.556C217.087 180.205 216.815 179.798 216.475 179.705C216.09 179.599 215.752 179.836 215.624 180.188C215.297 181.085 214.602 181.829 213.744 182.258C212.745 182.758 211.571 182.711 210.557 182.287C210.212 182.142 209.796 182.443 209.705 182.771C209.597 183.169 209.843 183.476 210.19 183.621Z" fill="#421B36"/>
<path d="M264.077 181.991C267.379 180.956 270.592 178.839 271.436 175.269C272.147 172.262 270.669 168.932 267.527 168.109C264.482 167.311 261.758 169.789 261.32 172.716C260.792 176.241 263.178 179.601 265.988 181.467C271.818 185.338 280.629 183.11 283.199 176.335C284.306 173.416 283.43 169.571 279.987 168.827C276.957 168.172 275.175 171.083 275.352 173.766C275.582 177.267 278.45 180.232 281.667 181.321C285.38 182.577 289.565 181.185 292.007 178.188C292.565 177.503 291.592 176.518 291.028 177.209C287.657 181.344 281.243 181.456 278.034 177.031C276.824 175.364 275.89 172.328 277.689 170.686C278.748 169.719 280.309 170.13 281.252 171.038C282.343 172.089 282.506 173.673 282.15 175.082C280.814 180.36 274.501 183.107 269.546 181.62C267.076 180.879 264.841 179.217 263.57 176.954C262.269 174.639 262.157 171.169 264.814 169.73C268.008 168 270.719 171.774 270.153 174.69C269.531 177.893 266.611 179.746 263.711 180.655C262.862 180.921 263.224 182.258 264.077 181.991Z" fill="white"/>
</g>
<defs>
<clipPath id="clip0_5496_32563">
<rect width="532" height="213" fill="white"/>
</clipPath>
</defs>
</svg>
