<svg width="532" height="213" viewBox="0 0 532 213" fill="none" xmlns="http://www.w3.org/2000/svg">
<g clip-path="url(#clip0_5496_33330)">
<rect width="532" height="213" fill="#E4EBF4"/>
<path d="M463.763 104.895C444.195 61.0842 406.402 27.0982 362.961 8.81415C319.52 -9.46985 270.857 -12.7159 224.543 -4.81085C180.981 2.62415 138.565 20.0452 104.44 48.8172C70.3147 77.5901 44.9437 118.144 37.4577 162.821C31.1067 200.724 37.5727 239.716 47.6057 276.77C53.7007 299.279 66.8917 323.055 82.4057 340.267C107.257 367.839 148.801 392.374 179.058 391.702L175.665 391.899C276.605 404.943 380.413 365.354 428.395 310.545C476.378 255.736 493.682 171.879 463.763 104.895Z" fill="#E4EBF4"/>
<path d="M284.079 129.733C284.079 129.733 300.574 105.217 277.875 94.7451C277.875 94.7451 292.593 98.9351 299.415 88.9441C306.237 78.9531 307.336 67.7151 307.336 67.7151C307.336 67.7151 312.891 85.9611 325.015 87.3221C341.677 89.1931 348.258 82.7761 348.258 82.7761C348.258 82.7761 343.079 95.9661 346.574 105.934C350.068 115.903 360.592 117.276 360.592 117.276C360.592 117.276 341.454 116.092 334.532 127.104C327.61 138.117 328.147 150.202 328.147 150.202C328.147 150.202 323.683 132.575 305.119 129.04C286.556 125.506 284.079 129.733 284.079 129.733Z" fill="white"/>
<path d="M174.711 32.8793C175.382 33.7463 189.178 51.1993 189.178 51.1993C189.178 51.1993 170.972 63.9143 179.349 64.4173C187.726 64.9203 199.852 66.4833 199.852 66.4833C199.852 66.4833 196.184 84.4273 200.168 81.6453C204.151 78.8633 214.202 68.8343 214.202 68.8343C214.202 68.8343 233.161 87.3613 231.395 79.5653C229.629 71.7703 225.216 61.1423 225.216 61.1423C225.216 61.1423 254.392 38.7583 246.754 40.7493C239.115 42.7403 220.964 44.5213 220.964 44.5213C220.964 44.5213 218.127 11.2523 214.102 15.0663C210.078 18.8803 202.909 38.2663 202.909 38.2663C202.909 38.2663 173.221 30.9553 174.711 32.8793Z" fill="white"/>
<path d="M130.083 159.695C135.577 179.104 129.748 198.293 104.527 205.433C74.9334 213.81 61.2574 200.142 55.7634 180.733C50.2694 161.324 62.4524 140.881 82.9754 135.071C103.498 129.262 124.589 140.287 130.083 159.695Z" fill="white"/>
<path d="M128.046 148.261C127.66 145.55 125.698 142.85 122.276 143.434C120.705 143.702 119.316 144.648 118.382 145.94C116.373 148.718 116.394 152.238 116.458 155.568C115.527 153.41 114.58 151.224 113.128 149.376C111.31 147.062 108.572 145.288 105.494 145.735C104.072 145.942 102.743 146.686 101.928 147.869C100.126 150.484 101.473 153.642 102.93 156.216C106.226 162.038 111.188 167.641 116.054 172.54C117.202 173.696 119.141 173.443 119.948 172.027C122.973 166.719 126.314 159.625 127.573 153.735C127.958 151.933 128.305 150.083 128.046 148.261Z" fill="#E4EBF4"/>
<path d="M81.6411 158.184C80.7611 155.591 78.3341 153.3 75.0781 154.506C73.5841 155.059 72.3931 156.246 71.7141 157.688C70.2531 160.789 70.924 164.245 71.602 167.506C70.288 165.557 68.9551 163.583 67.1861 162.035C64.9721 160.097 61.9531 158.859 59.0111 159.867C57.6521 160.332 56.4831 161.31 55.9011 162.623C54.6131 165.525 56.5201 168.38 58.4281 170.641C62.7431 175.754 68.6541 180.344 74.3411 184.26C75.6831 185.184 77.542 184.577 78.073 183.037C80.066 177.261 82.0391 169.673 82.1891 163.651C82.2331 161.809 82.2331 159.928 81.6411 158.184Z" fill="#E4EBF4"/>
<path d="M85.7232 179.415C87.9032 184.935 94.6582 188.179 100.314 186.269C105.926 184.374 109.394 178.03 108.018 172.28C107.627 170.645 105.071 171.189 105.463 172.825C106.521 177.246 103.911 182.368 99.5012 183.803C94.9302 185.29 89.7722 182.594 88.0412 178.21C87.4242 176.649 85.1112 177.865 85.7232 179.415Z" fill="#E4EBF4"/>
<path d="M431.85 248.955C427.283 270.184 412.06 285.492 384.472 279.557C352.103 272.593 345.992 252.696 350.559 231.467C355.126 210.238 377.025 196.943 399.473 201.772C421.921 206.602 436.417 227.726 431.85 248.955Z" fill="white"/>
<path d="M430.531 132.589C435.359 150.371 429.847 167.841 406.739 174.115C379.626 181.476 367.268 168.858 362.441 151.076C357.613 133.294 368.942 114.741 387.745 109.636C406.547 104.531 425.703 114.807 430.531 132.589Z" fill="white"/>
<path d="M423.724 142.97C424.845 152 421.218 157.06 414.64 162.278C409.069 166.697 400.075 168.501 392.977 168.058C387.995 167.747 382.921 166.197 379.282 162.78C375.643 159.363 373.752 153.849 375.486 149.168C376.887 145.386 380.611 142.578 384.633 142.272C386.905 142.099 389.162 142.659 391.431 142.869C393.7 143.079 396.175 142.873 397.93 141.419C399.2 140.367 399.917 138.81 400.877 137.468C402.813 134.76 405.87 132.881 409.16 132.376C412.45 131.871 415.93 132.747 418.589 134.75C418.589 134.75 423.101 137.957 423.724 142.97Z" fill="#E4EBF4"/>
<path d="M374.556 138.155C377.486 136.693 381.091 137.04 383.739 138.937C384.414 139.421 385.058 138.304 384.389 137.824C381.359 135.653 377.225 135.385 373.905 137.042C373.164 137.413 373.816 138.525 374.556 138.155Z" fill="#E4EBF4"/>
<path d="M402.784 133.01C403.651 129.856 406.31 127.37 409.501 126.682C410.311 126.507 409.968 125.265 409.159 125.44C405.541 126.22 402.521 129.105 401.542 132.668C401.322 133.468 402.565 133.809 402.784 133.01Z" fill="#E4EBF4"/>
<path d="M441.858 191.043L443.927 184.742L446.277 191.043C446.277 191.043 450.972 191.842 451.027 192.279C451.08 192.707 446.533 194.047 446.533 194.047C446.533 194.047 444.625 200.157 443.927 198.773C443.229 197.389 442.553 194.326 442.553 194.326C442.553 194.326 436.641 193.098 436.641 192.495C436.641 191.843 441.858 191.043 441.858 191.043Z" fill="white"/>
<path d="M319.692 42.6192L322.737 33.3472L326.195 42.6192C326.195 42.6192 333.103 43.7942 333.184 44.4382C333.263 45.0682 326.572 47.0402 326.572 47.0402C326.572 47.0402 323.764 56.0302 322.737 53.9942C321.71 51.9582 320.715 47.4512 320.715 47.4512C320.715 47.4512 312.016 45.6442 312.016 44.7572C312.015 43.7962 319.692 42.6192 319.692 42.6192Z" fill="white"/>
<path d="M97.5251 92.1561L100.957 81.7041L104.855 92.1561C104.855 92.1561 112.642 93.4811 112.733 94.2071C112.822 94.9171 105.28 97.1401 105.28 97.1401C105.28 97.1401 102.115 107.274 100.957 104.979C99.7991 102.684 98.6771 97.6031 98.6771 97.6031C98.6771 97.6031 88.8711 95.5661 88.8711 94.5661C88.8711 93.4831 97.5251 92.1561 97.5251 92.1561Z" fill="white"/>
<path d="M315.486 178.063L319.41 166.115L323.866 178.063C323.866 178.063 332.768 179.577 332.871 180.407C332.972 181.219 324.351 183.76 324.351 183.76C324.351 183.76 320.733 195.344 319.41 192.721C318.087 190.097 316.804 184.29 316.804 184.29C316.804 184.29 305.594 181.961 305.594 180.818C305.594 179.58 315.486 178.063 315.486 178.063Z" fill="white"/>
<path d="M156.618 181.39L158.69 175.081L161.043 181.39C161.043 181.39 165.743 182.189 165.798 182.628C165.851 183.057 161.299 184.399 161.299 184.399C161.299 184.399 159.388 190.516 158.69 189.131C157.991 187.746 157.314 184.679 157.314 184.679C157.314 184.679 151.395 183.449 151.395 182.846C151.395 182.191 156.618 181.39 156.618 181.39Z" fill="white"/>
<path d="M129.055 94.21C128.794 93.495 128.222 92.907 127.692 92.371C127.102 91.775 126.522 91.214 125.727 90.918C124.925 90.62 124.304 91.628 124.671 92.291C125.058 92.991 125.715 93.433 126.342 93.904C126.91 94.331 127.58 94.836 128.285 94.978C128.712 95.066 129.231 94.692 129.055 94.21Z" fill="#007CC3"/>
<path d="M133.857 88.444C134.445 87.874 133.752 86.841 133.485 86.282C133.063 85.395 132.555 84.489 131.751 83.904C131.05 83.394 130.205 84.233 130.378 84.96C130.611 85.944 131.392 86.811 132.054 87.548C132.393 87.923 133.248 89.033 133.857 88.444Z" fill="#007CC3"/>
<path d="M124.697 101.791C124.625 100.977 123.761 100.698 123.119 100.386C122.283 99.9789 121.309 99.5159 120.364 99.5499C119.635 99.5759 119.027 100.608 119.703 101.146C120.581 101.844 121.72 102.062 122.805 102.254C123.189 102.321 124.773 102.648 124.697 101.791Z" fill="#007CC3"/>
<path d="M155.313 84.841C148.902 85.212 142.961 88.535 137.938 93.884C131.8 100.42 128.578 109.992 130.606 118.726C132.634 127.46 139.48 134.743 147.829 138.013C156.063 141.238 167.156 140.076 174.415 133.876C174.415 133.876 184.476 138.91 185.694 136.748C186.581 135.841 182.052 128.975 179.812 126.715L179.75 126.779C184.502 119.304 187.024 109.007 180.932 98.176C176.382 90.086 166.997 84.164 155.313 84.841Z" fill="#007CC3"/>
<path d="M153.738 105.735C153.738 105.735 162.359 92.453 162.55 93.952C162.741 95.451 162.652 107.648 162.652 107.648L173.459 111.546L163.336 114.436C163.336 114.436 166.873 126.092 165.85 126.34C164.827 126.587 154.283 117.383 154.283 117.383C154.283 117.383 141.606 121.808 142.05 120.697C142.495 119.586 150.765 110.918 150.765 110.918C150.765 110.918 141.019 104.307 142.474 103.771C143.929 103.233 153.738 105.735 153.738 105.735Z" fill="#A0D2F4"/>
<path d="M309.785 8.33109C309.899 28.8071 298.995 46.0001 272.386 46.1481C241.164 46.3221 231.489 29.2431 231.376 8.76608C231.262 -11.7109 248.723 -28.4079 270.375 -28.5279C292.027 -28.6479 309.671 -12.1459 309.785 8.33109Z" fill="#A0D2F4"/>
<path d="M249.194 9.53797C249.038 11.068 247.671 12.181 246.141 12.024C244.611 11.868 243.498 10.501 243.655 8.97097C243.811 7.44197 245.178 6.32797 246.708 6.48497C248.237 6.64097 249.35 8.00797 249.194 9.53797Z" fill="#421B36"/>
<path d="M295.78 9.67713C295.623 11.2061 294.257 12.3201 292.727 12.1631C291.197 12.0071 290.084 10.6401 290.241 9.11013C290.397 7.58113 291.764 6.46713 293.294 6.62413C294.823 6.78113 295.936 8.14813 295.78 9.67713Z" fill="#421B36"/>
<path d="M254.888 14.7382C264.002 14.7382 273.115 14.7382 282.229 14.7382C283.058 14.7382 283.059 13.4502 282.229 13.4502C273.115 13.4502 264.002 13.4502 254.888 13.4502C254.059 13.4492 254.058 14.7382 254.888 14.7382Z" fill="#421B36"/>
<path d="M86.757 31.2471C89.365 51.6511 102.506 67.3221 129.022 63.9341C160.134 59.9581 167.498 41.6661 164.89 21.2621C162.282 0.85812 142.678 -13.4479 121.102 -10.6909C99.526 -7.93388 84.149 10.8431 86.757 31.2471Z" fill="#A0D2F4"/>
<path d="M147.245 24.3981C147.604 25.9001 149.113 26.8271 150.615 26.4681C152.117 26.1091 153.044 24.6001 152.685 23.0981C152.326 21.5961 150.817 20.6691 149.315 21.0281C147.813 21.3871 146.886 22.8961 147.245 24.3981Z" fill="#421B36"/>
<path d="M100.878 30.727C101.237 32.229 102.746 33.156 104.248 32.797C105.75 32.438 106.677 30.929 106.318 29.427C105.959 27.925 104.45 26.998 102.948 27.357C101.446 27.716 100.519 29.225 100.878 30.727Z" fill="#421B36"/>
<path d="M112.204 38.304C115.719 32.26 121.964 27.927 128.925 26.988C135.383 26.117 142.048 28.141 146.991 32.363C147.798 33.052 146.846 34.411 146.034 33.718C141.408 29.768 135.246 27.81 129.186 28.627C122.626 29.512 116.866 33.577 113.559 39.262C113.021 40.186 111.671 39.22 112.204 38.304Z" fill="#421B36"/>
<path d="M360.319 13.7431C356.317 33.6521 363.663 52.4581 389.534 57.6581C419.89 63.7601 432.552 48.9751 436.554 29.0671C440.556 9.15807 426.734 -10.4109 405.682 -14.6429C384.631 -18.8739 364.321 -6.16493 360.319 13.7431Z" fill="#007CC3"/>
<path d="M419.058 26.4321C418.92 27.9511 420.038 29.2941 421.557 29.4321C423.075 29.5701 424.419 28.4521 424.557 26.9331C424.695 25.4151 423.577 24.0711 422.058 23.9331C420.539 23.7951 419.196 24.9131 419.058 26.4321Z" fill="#421B36"/>
<path d="M373.691 17.7151C373.553 19.2331 374.671 20.5761 376.19 20.7151C377.708 20.8531 379.052 19.7351 379.19 18.2161C379.328 16.6971 378.21 15.3541 376.691 15.2161C375.172 15.0781 373.829 16.1971 373.691 17.7151Z" fill="#421B36"/>
<path d="M415.545 32.417C409.947 36.454 402.574 37.85 395.92 35.899C389.747 34.089 384.552 29.585 381.791 23.791C381.34 22.845 382.745 22.003 383.199 22.954C385.782 28.375 390.551 32.618 396.344 34.317C402.615 36.156 409.442 34.807 414.709 31.009C415.565 30.392 416.393 31.805 415.545 32.417Z" fill="#421B36"/>
<path d="M229.687 70.91C232.388 69.186 235.164 67.431 238.298 66.763C241.431 66.095 245.048 66.733 247.13 69.168C248.177 70.393 248.788 71.997 250.053 72.996C252.248 74.731 255.501 74.022 258.089 75.084C261.355 76.425 262.874 80.487 262.202 83.953C261.531 87.419 259.898 91.77 256.472 92.624C255.745 92.805 242.893 97.946 242.893 97.946L227.555 76.862L229.687 70.91Z" fill="#421B36"/>
<path d="M211.579 86.4739C208.71 90.1169 205.959 94.7669 207.166 99.6459C207.638 101.554 208.694 103.313 208.937 105.257C209.231 107.61 208.292 109.874 208.411 112.233C208.591 115.79 211.524 119.111 214.757 119.418C216.323 119.566 217.986 119.118 219.402 119.954C220.342 120.509 220.98 121.528 221.755 122.344C223.72 124.412 226.618 125.121 229.188 124.667C231.758 124.212 234.035 122.723 235.991 120.923L223.956 73.6709C219.445 77.4619 215.294 81.7559 211.579 86.4739Z" fill="#421B36"/>
<path d="M220.51 89.672C223.974 75.141 242.125 69.47 253.274 79.412C256.8 82.556 259.764 87.426 262.45 94.447C269.944 114.035 253.511 120.732 253.511 120.732L255.135 139.093L237.597 138.2L235.49 121.894C231.435 119.876 221.184 107.715 220.482 96.139C220.347 93.923 220.002 91.8 220.51 89.672Z" fill="#FFAE7A"/>
<path d="M230.11 75.118C219.414 78.87 212.092 92.273 213.656 99.058C218.112 118.398 235.492 121.892 235.492 121.892C229.036 116.776 225.46 112.561 223.393 104.371C223.393 104.371 232.598 104.951 228.507 98.29C226.38 94.826 225.345 93.025 224.424 89.732C221.451 79.11 238.95 74.148 238.95 74.148C238.95 74.148 238.289 72.249 230.11 75.118Z" fill="#421B36"/>
<path d="M252.031 87.487C252.334 88.193 252.064 88.988 251.428 89.261C250.791 89.534 250.029 89.184 249.726 88.477C249.423 87.771 249.693 86.976 250.33 86.703C250.966 86.429 251.728 86.78 252.031 87.487Z" fill="#421B36"/>
<path d="M239.422 92.8251C239.725 93.5311 239.455 94.3261 238.818 94.5991C238.181 94.8721 237.419 94.5211 237.116 93.8151C236.813 93.1091 237.083 92.3141 237.72 92.0411C238.357 91.7681 239.119 92.1191 239.422 92.8251Z" fill="#421B36"/>
<path d="M228.626 89.8091C229.528 88.5831 231.031 87.5181 232.377 86.8421C233.628 86.2131 234.953 86.0981 236.263 85.6901C237.019 85.4551 236.753 84.3271 236.056 84.2331C232.549 83.7581 229.554 86.5611 227.955 89.3131C227.692 89.7661 228.3 90.2531 228.626 89.8091Z" fill="#421B36"/>
<g opacity="0.2">
<path d="M239.508 98.2981C239.958 99.3451 238.683 100.898 236.66 101.767C234.638 102.635 232.633 102.49 232.184 101.443C231.734 100.396 233.009 98.8431 235.032 97.9741C237.054 97.1061 239.058 97.2511 239.508 98.2981Z" fill="#421B36"/>
</g>
<g opacity="0.2">
<path d="M258.188 90.6001C258.638 91.6471 257.363 93.2001 255.34 94.0691C253.318 94.9371 251.313 94.7921 250.864 93.7451C250.414 92.6981 251.689 91.1451 253.712 90.2761C255.734 89.4071 257.738 89.5521 258.188 90.6001Z" fill="#421B36"/>
</g>
<path d="M223.332 104.226C220.411 103.897 219.12 105.197 218.459 106.335C217.799 107.473 217.68 108.864 217.894 110.162C218.25 112.32 219.584 114.373 221.578 115.271C223.572 116.17 226.19 115.697 227.509 113.952L223.332 104.226Z" fill="#FFAE7A"/>
<path d="M221.685 111.008C221.925 110.649 222.662 110.202 223.047 110.037C223.688 109.761 224.226 109.909 224.847 110.136C225.575 110.402 226.173 109.406 225.518 108.931C224.726 108.356 223.596 108.302 222.716 108.708C222.298 108.901 221.876 109.231 221.633 109.626C221.343 110.097 221.465 110.407 221.453 110.915C221.451 111.034 221.606 111.126 221.685 111.008Z" fill="#421B36"/>
<path d="M248.147 79.008C244.952 77.489 241.374 79.537 240.97 82.978C240.403 87.811 244.933 93.307 248.74 95.73C249.615 96.287 250.451 95.13 249.689 94.446C247.229 92.239 244.731 90.008 243.328 86.932C242.353 84.794 241.803 82.042 244.133 80.476C245.105 79.823 246.826 79.544 247.989 79.622C248.355 79.646 248.477 79.165 248.147 79.008Z" fill="#421B36"/>
<path d="M243.507 121.725C247.646 122.993 252.115 122.4 255.937 120.394C256.69 119.999 256.214 118.826 255.409 119.164C251.542 120.789 247.702 121.469 243.522 121.606C243.46 121.608 243.449 121.707 243.507 121.725Z" fill="#421B36"/>
<path d="M228.512 98.29C229.829 100.341 231.386 104.452 231.884 106.838C232.053 107.65 232.111 108.537 231.721 109.269C231.331 110.001 230.36 110.469 229.635 110.067C229.385 109.928 228.623 109.626 228.385 109.469C225.349 107.457 224.398 105.765 222.266 103.306" fill="#421B36"/>
<path d="M226.162 99.233C228.465 97.138 230.8 95.003 232.413 92.34C234.025 89.677 234.841 86.362 233.862 83.407C233.227 81.49 231.901 79.877 231.124 78.013C230.346 76.149 228.441 71.991 229.989 70.695C226.796 69.063 220.662 76.362 218.031 78.798" fill="#421B36"/>
<path d="M229.717 71.439C232.741 69.12 236.4 66.781 240.202 66.077C242.072 65.731 244.349 65.925 245.76 67.353C246.974 68.582 246.935 70.431 247.834 71.842C249.982 75.214 253.683 72.281 256.647 72.049C258.491 71.904 260.736 72.419 261.665 74.206C262.709 76.214 261.064 78.381 259.632 79.659C259.012 80.212 259.926 81.121 260.543 80.57C263.195 78.204 264.612 74.075 261.083 71.77C259.512 70.744 257.581 70.582 255.768 70.861C254.501 71.056 253.33 71.488 252.125 71.901C250.705 72.387 249.521 72.323 248.765 70.877C247.847 69.119 247.83 67.278 246.131 65.985C244.795 64.968 243.053 64.568 241.395 64.645C236.949 64.853 232.487 67.702 229.066 70.325C228.418 70.824 229.059 71.944 229.717 71.439Z" fill="#421B36"/>
<path d="M243.413 101.73C245.488 103.277 248.548 103.316 250.671 101.842C250.956 101.644 251.087 101.278 250.902 100.961C250.737 100.678 250.308 100.531 250.021 100.73C248.234 101.971 245.805 101.916 244.064 100.618C243.785 100.41 243.344 100.572 243.183 100.849C242.989 101.177 243.133 101.521 243.413 101.73Z" fill="#421B36"/>
<path d="M265.891 210.126L271.09 231.156C271.09 231.156 331.959 195.585 350.294 207.597C368.629 219.609 355.399 235.577 348.445 251.382C341.49 267.188 287.195 350.933 274.551 347.772C261.906 344.611 236.938 329.157 245.492 317.554L286.637 257C286.637 257 274.105 281.02 246.496 284.15C238.749 285.028 246.18 210.443 246.18 210.443L265.891 210.126Z" fill="#007CC3"/>
<path d="M216.806 210.986L209.748 232.275C209.748 232.275 137.863 215.5 124.586 224.351C111.309 233.202 113.55 241.692 118.608 255.285C123.666 268.878 161.66 344.53 168.615 342.318C175.57 340.106 208.691 310.439 208.691 310.439L184.14 277.466C184.14 277.466 207.408 282.833 229.536 284.098C251.664 285.363 245.342 284.098 245.342 284.098L246.178 210.443L216.806 210.986Z" fill="#007CC3"/>
<path d="M358.706 68.4279C358.911 68.1889 365.867 59.0579 369.591 55.2019C373.315 51.3449 384.677 38.7489 388 40.3559C391.323 41.9629 387.568 45.2079 385.825 46.7549C384.083 48.3019 379.803 52.4869 379.803 52.4869C379.803 52.4869 385.175 54.6069 383.659 58.1459C383.659 58.1459 387.052 59.0339 385.946 63.0619C385.946 63.0619 389.383 64.5589 387.581 67.5959C385.757 70.6699 384.176 71.8109 381.276 71.6039C381.276 71.6039 374.532 77.0659 368.681 77.4379C368.681 77.4379 366.263 89.6219 363.702 89.2229C361.141 88.8229 351.456 80.8489 352.197 78.8569C352.937 76.8659 358.706 68.4279 358.706 68.4279Z" fill="#FFAE7A"/>
<path d="M369.685 58.5399C371.334 57.2159 373.714 57.6369 375.323 58.7939C377.112 60.0809 378.238 62.1909 379.06 64.1829C379.479 65.1989 380.026 66.4059 380.064 67.5179C380.105 68.7069 379.175 69.6519 378.024 69.8329C375.511 70.2279 373.886 67.6649 373.139 65.6649C372.929 65.1039 372.065 65.0039 371.897 65.6649C371.015 69.1249 366.831 70.5329 364.091 68.1689C363.466 67.6299 362.551 68.5369 363.18 69.0799C366.625 72.0519 372.004 70.4609 373.14 66.0079C372.726 66.0079 372.312 66.0079 371.898 66.0079C372.668 68.0709 373.874 70.0639 376.039 70.8629C377.954 71.5689 380.354 70.8529 381.135 68.8429C381.558 67.7539 381.268 66.6039 380.923 65.5359C380.537 64.3399 380.057 63.1669 379.487 62.0459C378.509 60.1219 377.145 58.2269 375.193 57.1989C373.138 56.1179 370.615 56.1499 368.773 57.6289C368.127 58.1479 369.044 59.0539 369.685 58.5399Z" fill="#421B36"/>
<path d="M385.049 63.3259C384.981 63.8019 384.847 64.2129 384.637 64.5859C384.416 64.9799 384.136 65.3149 383.787 65.5929C383.072 66.1629 382.044 66.4049 381.179 66.2539C380.837 66.1939 380.485 66.3459 380.387 66.7039C380.302 67.0149 380.492 67.4359 380.837 67.4959C382.103 67.7169 383.439 67.4609 384.475 66.6769C385.436 65.9499 386.119 64.8679 386.291 63.6669C386.34 63.3229 386.206 62.9749 385.841 62.8749C385.539 62.7929 385.098 62.9789 385.049 63.3259Z" fill="#421B36"/>
<path d="M383.136 57.626C382.754 58.786 382.362 60.1279 381.433 60.9749C381.282 61.1129 381.07 61.2519 380.821 61.3799C380.63 61.4769 380.453 61.547 380.18 61.624C380.06 61.658 379.939 61.6869 379.817 61.7109C379.759 61.7219 379.7 61.7319 379.641 61.7409C379.783 61.7189 379.619 61.743 379.587 61.745C379.483 61.754 379.379 61.76 379.275 61.759C379.22 61.758 379.166 61.7539 379.111 61.7519C378.941 61.7459 379.216 61.7719 379.094 61.7509C378.752 61.6899 378.4 61.8429 378.302 62.2009C378.216 62.5119 378.407 62.9319 378.752 62.9929C379.963 63.2079 381.313 62.7469 382.244 61.9739C382.804 61.5089 383.216 60.836 383.53 60.188C383.876 59.474 384.131 58.722 384.378 57.97C384.487 57.64 384.252 57.267 383.928 57.178C383.579 57.08 383.245 57.294 383.136 57.626Z" fill="#421B36"/>
<path d="M377.58 55.6069C377.455 55.8589 377.309 56.0999 377.143 56.3269C377.11 56.3719 377.034 56.4289 377.151 56.3189C377.128 56.3399 377.111 56.3699 377.091 56.3939C377.046 56.4479 377.001 56.5019 376.954 56.5539C376.86 56.6589 376.762 56.7599 376.66 56.8569C376.558 56.9539 376.451 57.0449 376.341 57.1339C376.253 57.2059 376.429 57.0689 376.365 57.1149C376.339 57.1339 376.314 57.1529 376.288 57.1719C376.226 57.2169 376.163 57.2599 376.098 57.3019C375.986 57.3759 375.87 57.4439 375.752 57.5079C375.69 57.5409 375.628 57.5739 375.564 57.6039C375.529 57.6209 375.495 57.6369 375.46 57.6529C375.42 57.6709 375.299 57.7229 375.473 57.6489C375.311 57.7169 375.181 57.7869 375.088 57.9449C375.007 58.0829 374.973 58.2869 375.023 58.4409C375.073 58.5969 375.17 58.7469 375.319 58.8259C375.461 58.9009 375.66 58.9559 375.815 58.8909C376.454 58.6219 377.031 58.2679 377.541 57.7929C378.009 57.3569 378.406 56.8279 378.69 56.2559C378.84 55.9549 378.781 55.5449 378.459 55.3749C378.171 55.2219 377.741 55.2849 377.58 55.6069Z" fill="#421B36"/>
<path d="M379.922 51.685C378.026 53.37 376.13 55.054 374.233 56.739C373.973 56.97 373.997 57.414 374.233 57.65C374.492 57.908 374.883 57.882 375.144 57.65C377.04 55.965 378.936 54.281 380.833 52.596C381.093 52.365 381.069 51.921 380.833 51.685C380.575 51.426 380.183 51.453 379.922 51.685Z" fill="#421B36"/>
<path d="M384.515 70.3939C384.027 70.5509 383.536 70.7079 383.033 70.8109C382.808 70.8569 382.584 70.8889 382.354 70.8989C382.227 70.9049 382.1 70.9059 381.973 70.8999C381.917 70.8979 381.861 70.8939 381.806 70.8889C381.725 70.8809 381.71 70.8789 381.762 70.8839C381.367 70.8229 381.086 70.7199 380.769 70.5139C380.675 70.4529 380.674 70.4509 380.616 70.3999C380.546 70.3379 380.478 70.2719 380.417 70.2009C380.366 70.1419 380.369 70.1469 380.31 70.0489C380.293 70.0209 380.201 69.8359 380.22 69.8839C380.092 69.5609 379.789 69.3349 379.428 69.4339C379.12 69.5189 378.85 69.9009 378.978 70.2259C379.368 71.2149 380.243 71.8809 381.278 72.0999C382.494 72.3569 383.707 72.0079 384.86 71.6369C385.191 71.5309 385.405 71.1899 385.31 70.8449C385.218 70.5189 384.847 70.2869 384.515 70.3939Z" fill="#421B36"/>
<path d="M379.638 64.3448C378.979 64.2878 378.337 64.5868 377.873 65.0408C377.362 65.5408 377.093 66.2008 377.004 66.9008C376.911 67.6268 377.019 68.3568 377.15 69.0718C377.279 69.7738 377.72 70.5548 378.55 70.4908C378.897 70.4638 379.194 70.2138 379.194 69.8468C379.194 69.5188 378.899 69.1758 378.55 69.2028C378.488 69.2078 378.466 69.1978 378.537 69.2188C378.598 69.2368 378.533 69.2568 378.545 69.2228C378.518 69.1938 378.513 69.1898 378.528 69.2098C378.55 69.2418 378.54 69.2238 378.498 69.1558C378.519 69.2048 378.477 69.1028 378.477 69.1008C378.399 68.8738 378.371 68.6198 378.334 68.3838C378.262 67.9298 378.213 67.4398 378.284 66.9868C378.349 66.5728 378.492 66.2488 378.76 65.9778C378.871 65.8658 379.016 65.7558 379.151 65.6958C379.116 65.7118 379.264 65.6588 379.266 65.6578C379.309 65.6458 379.354 65.6348 379.398 65.6268C379.328 65.6388 379.399 65.6268 379.43 65.6268C379.501 65.6268 379.568 65.6278 379.638 65.6338C379.985 65.6638 380.282 65.3158 380.282 64.9898C380.283 64.6158 379.986 64.3748 379.638 64.3448Z" fill="#421B36"/>
<path d="M265.195 127.779C265.195 127.779 309.556 115.367 317.251 111.809C324.946 108.252 345.896 72.988 352.624 74.95C355.864 75.895 359.951 79.196 363.319 82.365C367.215 86.032 367.986 91.934 365.131 96.46C357.446 108.643 342.052 132.164 333.929 138.479C322.822 147.114 267 160.118 267 160.118L265.195 127.779Z" fill="#421B36"/>
<path d="M237.594 133.405C236.389 133.222 215.798 132.212 203.857 144.053C191.916 155.894 182.559 179.136 183.807 182.882C185.055 186.628 204.59 199.92 204.59 199.92L237.594 133.405Z" fill="#421B36"/>
<path d="M205.753 189.544C206.206 190.134 210.988 196.632 210.265 201.23C209.542 205.827 198.383 215.058 189.47 220.83C180.557 226.601 170.045 224.005 169.938 213.262C169.831 202.519 179.059 185.735 179.059 185.735L198.527 152.848L205.753 189.544Z" fill="#421B36"/>
<path d="M244.879 131.315C244.879 131.315 223.522 134.287 213.447 137.988C203.577 141.614 210.064 202.45 209.864 208.754C209.864 208.754 198.016 211.867 202.135 220.182C206.255 228.497 270.993 229.256 279.269 214.074C285.137 203.308 284.897 146.264 280.105 132.153C276.866 122.619 256.233 129.575 244.879 131.315Z" fill="#421B36"/>
<path d="M210.921 204.003C211.63 185.25 212.339 166.497 213.048 147.744C213.079 146.915 211.791 146.916 211.76 147.744C211.051 166.497 210.342 185.25 209.633 204.003C209.601 204.833 210.889 204.831 210.921 204.003Z" fill="#007CC3"/>
<path d="M186.985 158.874C186.985 158.874 198.546 197.068 203.584 199.516C208.623 201.964 226.74 200.543 226.985 197.765C227.23 194.987 215.632 157.588 212.311 156.395C208.991 155.202 185.546 154.1 186.985 158.874Z" fill="#007CC3"/>
<path d="M193.26 170.407C193.26 170.407 195.79 167.843 193.986 165.742C192.182 163.641 188.246 164.579 186.338 169.848C184.43 175.118 183.662 179.689 189.024 182.146C189.024 182.146 188.319 184.276 191.215 186.57C191.215 186.57 190.46 189.675 193.261 192.376C193.261 192.376 193.96 197.759 197.129 199.155C200.298 200.55 206.746 199.189 206.34 196.776C205.934 194.364 199.621 193.067 199.621 193.067C199.621 193.067 204.663 192.456 205.436 190.385C206.209 188.314 203.224 185.855 203.224 185.855C203.224 185.855 205.049 184.512 204.291 182.213C203.534 179.913 200.7 178.877 196.786 178.921C192.873 178.965 189.799 179.923 189.799 179.923C189.799 179.923 191.172 171.472 193.26 170.407Z" fill="#FFAE7A"/>
<path d="M189.268 181.296C192.206 179.686 195.519 178.902 198.866 179.006C199.604 179.029 199.603 177.883 198.866 177.86C195.32 177.75 191.799 178.603 188.689 180.307C188.042 180.661 188.62 181.652 189.268 181.296Z" fill="#421B36"/>
<path d="M191.429 187.286C195.395 186.502 199.423 186.126 203.466 186.152C204.204 186.157 204.205 185.01 203.466 185.006C199.323 184.98 195.189 185.378 191.124 186.181C190.401 186.324 190.707 187.429 191.429 187.286Z" fill="#421B36"/>
<path d="M193.702 192.988C196.851 193.859 200.171 193.912 203.348 193.153C204.065 192.981 203.761 191.876 203.043 192.048C200.064 192.76 196.958 192.7 194.007 191.883C193.295 191.686 192.991 192.792 193.702 192.988Z" fill="#421B36"/>
<path d="M191.287 179.995C191.264 177.07 192.076 174.208 193.628 171.728C194.021 171.101 193.029 170.525 192.638 171.149C190.984 173.792 190.116 176.877 190.141 179.994C190.146 180.732 191.293 180.734 191.287 179.995Z" fill="#421B36"/>
<path d="M188.518 167.32C189.548 167.885 190.775 167.926 191.84 167.435C192.778 167.003 193.485 166.116 193.761 165.129C193.96 164.418 192.855 164.114 192.656 164.824C192.462 165.518 191.991 166.089 191.321 166.417C190.644 166.748 189.777 166.703 189.096 166.33C188.449 165.975 187.87 166.965 188.518 167.32Z" fill="#421B36"/>
<path d="M198.075 179.329C198.325 180.643 199.225 181.849 200.433 182.437C201.785 183.095 203.413 183.019 204.699 182.238C205.329 181.856 204.753 180.864 204.12 181.248C203.172 181.824 201.935 181.925 200.935 181.409C200.004 180.929 199.375 180.048 199.18 179.024C199.122 178.72 198.756 178.546 198.475 178.624C198.157 178.712 198.017 179.024 198.075 179.329Z" fill="#421B36"/>
<path d="M200.376 185.678C200.515 188.135 202.75 190.242 205.231 190.15C205.54 190.138 205.804 189.895 205.804 189.577C205.804 189.275 205.542 188.992 205.231 189.004C204.304 189.038 203.41 188.68 202.731 188.062C202.345 187.71 202.115 187.416 201.876 186.955C201.76 186.731 201.715 186.621 201.638 186.348C201.606 186.234 201.579 186.118 201.557 186.001C201.555 185.989 201.531 185.821 201.542 185.917C201.533 185.838 201.527 185.758 201.523 185.678C201.506 185.369 201.272 185.105 200.95 185.105C200.652 185.105 200.359 185.367 200.376 185.678Z" fill="#421B36"/>
<path d="M202.361 195.022C202.149 196.967 203.966 198.842 205.907 198.74C206.206 198.724 206.494 198.488 206.48 198.167C206.467 197.87 206.227 197.577 205.907 197.594C205.804 197.599 205.701 197.6 205.598 197.593C205.592 197.593 205.468 197.579 205.467 197.581C205.547 197.592 205.555 197.593 205.489 197.582C205.475 197.579 205.46 197.577 205.446 197.574C205.346 197.555 205.247 197.53 205.15 197.499C205.108 197.486 205.067 197.472 205.026 197.457C204.97 197.436 204.914 197.408 205.001 197.449C204.828 197.368 204.662 197.278 204.505 197.168C204.481 197.151 204.457 197.134 204.433 197.116C204.49 197.161 204.494 197.164 204.444 197.124C204.41 197.095 204.376 197.068 204.343 197.038C204.271 196.975 204.202 196.908 204.136 196.838C204.07 196.768 204.008 196.695 203.948 196.62C204.036 196.73 203.945 196.612 203.932 196.594C203.902 196.552 203.874 196.509 203.847 196.465C203.796 196.384 203.749 196.301 203.706 196.216C203.686 196.177 203.669 196.136 203.649 196.097C203.713 196.228 203.644 196.082 203.632 196.051C203.599 195.962 203.571 195.872 203.548 195.78C203.537 195.738 203.527 195.695 203.519 195.652C203.516 195.636 203.489 195.465 203.5 195.556C203.512 195.647 203.494 195.475 203.493 195.458C203.49 195.414 203.489 195.371 203.488 195.327C203.487 195.224 203.493 195.121 203.505 195.019C203.538 194.72 203.218 194.433 202.932 194.446C202.596 194.464 202.396 194.702 202.361 195.022Z" fill="#421B36"/>
<path d="M204.083 166.673C205.007 168.061 204.851 169.789 203.735 170.533C202.619 171.276 200.964 170.753 200.04 169.365C199.116 167.977 199.272 166.249 200.388 165.505C201.504 164.762 203.158 165.285 204.083 166.673Z" fill="white"/>
<path d="M232.312 133.373C232.312 133.373 237.748 140.102 248.993 137.853C260.238 135.604 258.742 128.626 258.742 128.626C258.742 128.626 244.316 129.811 232.312 133.373Z" fill="#FFAE7A"/>
<path d="M255.59 131.934C254.936 128.282 254.283 124.631 253.629 120.979C253.483 120.164 252.241 120.509 252.387 121.321C253.041 124.973 253.694 128.624 254.348 132.276C254.494 133.092 255.735 132.746 255.59 131.934Z" fill="#421B36"/>
<path d="M352.266 76.721C352.266 76.721 355.145 71.475 356.545 71.614C357.945 71.753 368.734 80.554 368.592 81.832C368.45 83.11 364.694 89.074 364.694 89.074L352.266 76.721Z" fill="#421B36"/>
<path d="M284.444 161.01C284.744 154.149 283.26 147.324 280.172 141.194C279.799 140.453 278.687 141.105 279.059 141.844C282.047 147.775 283.445 154.378 283.155 161.01C283.12 161.839 284.408 161.838 284.444 161.01Z" fill="#007CC3"/>
<path d="M280.593 141.883C281.327 140.808 282.061 139.734 282.795 138.659C282.986 138.38 282.857 137.932 282.564 137.778C282.237 137.605 281.886 137.711 281.683 138.009C280.949 139.084 280.215 140.158 279.481 141.233C279.29 141.512 279.419 141.96 279.712 142.114C280.039 142.287 280.39 142.181 280.593 141.883Z" fill="#007CC3"/>
<path d="M343.068 126.49C341.315 125.322 339.045 125.311 336.953 125.563C325.049 126.997 314.475 136.252 311.477 147.861L311.453 147.986C321.446 144.762 330.203 141.375 333.929 138.479C336.663 136.354 340.221 132.276 344.031 127.341C343.742 127.025 343.43 126.731 343.068 126.49Z" fill="#007CC3"/>
<path d="M352.157 75.6459C356.814 79.4129 361.102 83.6159 364.96 88.1979C365.495 88.8329 366.402 87.9179 365.871 87.2869C362.012 82.7059 357.725 78.5019 353.068 74.7349C352.429 74.2179 351.512 75.1249 352.157 75.6459Z" fill="#007CC3"/>
<path d="M396.924 77.4951C395.939 84.5481 395.839 91.6651 396.667 98.7401C396.718 99.1711 397.194 99.6131 397.636 99.2961C403.884 94.8201 408.674 88.6661 411.485 81.5141C411.093 81.5651 410.7 81.6171 410.308 81.6681C416.046 91.0551 423.428 99.3571 432.093 106.137C432.497 106.453 433.215 106.295 433.193 105.682C432.844 96.2681 430.522 87.0481 426.384 78.5861C426.142 78.9011 425.899 79.2171 425.656 79.5321C433.485 82.1041 441.314 84.6761 449.143 87.2481C449.807 87.4661 450.146 86.6261 449.77 86.1711C444.259 79.5141 438.13 73.4031 431.455 67.9131C431.303 68.2791 431.151 68.6461 430.999 69.0131C436.599 68.6041 442.462 68.1101 447.862 66.5141C449.157 66.1311 452.714 65.0281 451.431 62.9981C450.83 62.0471 449.518 61.3961 448.59 60.8371C446.978 59.8661 445.308 58.9881 443.633 58.1301C440.892 56.7261 438.118 55.3831 435.318 54.1011C434.57 53.7581 433.914 54.8681 434.668 55.2141C436.703 56.1461 438.722 57.1161 440.728 58.1091C443.698 59.5791 446.861 61.0131 449.539 62.9871C450.033 63.3511 450.602 63.6161 450.225 64.0591C449.62 64.7701 448.27 65.0561 447.425 65.3011C444.239 66.2261 440.897 66.6701 437.61 67.0691C435.412 67.3351 433.207 67.5651 430.998 67.7261C430.499 67.7621 430.074 68.4411 430.542 68.8261C437.216 74.3161 443.346 80.4271 448.857 87.0841C449.066 86.7251 449.275 86.3661 449.484 86.0071C441.655 83.4351 433.826 80.8631 425.997 78.2911C425.424 78.1031 425.039 78.7661 425.27 79.2371C429.306 87.4891 431.563 96.5041 431.903 105.683C432.27 105.531 432.636 105.379 433.003 105.227C424.421 98.5121 417.103 90.3161 411.42 81.0191C411.11 80.5111 410.44 80.6711 410.243 81.1731C407.565 87.9861 402.937 93.9221 396.986 98.1851C397.309 98.3701 397.632 98.5561 397.955 98.7411C397.142 91.7911 397.198 84.7701 398.166 77.8391C398.279 77.0271 397.038 76.6761 396.924 77.4951Z" fill="#421B36"/>
</g>
<defs>
<clipPath id="clip0_5496_33330">
<rect width="532" height="213" fill="white"/>
</clipPath>
</defs>
</svg>
