<svg width="54" height="54" viewBox="0 0 54 54" fill="none" xmlns="http://www.w3.org/2000/svg">
<path d="M40.0049 8.35083H9.19789L8.97219 10.5872H17.8357C19.0258 10.5872 19.9901 11.5516 19.9901 12.7416C19.9901 13.9316 19.0258 14.8959 17.8357 14.8959H8.54133L7.91554 21.2256H17.8357C19.0258 21.2256 19.9901 22.1899 19.9901 23.3799C19.9901 24.5699 19.0258 25.5342 17.8357 25.5342H7.48467L6.85889 31.8639H17.8357C19.0258 31.8639 19.9901 32.8282 19.9901 34.0182C19.9901 35.2082 19.0258 36.1725 17.8357 36.1725H6.42802L5.8125 42.3483H7.88477C7.88477 39.4656 10.2238 37.1266 13.1065 37.1266C15.9892 37.1266 18.3282 39.4656 18.3282 42.3483H36.6195L38.62 22.3232L40.0049 8.35083ZM17.8357 30.8585H12.1627C10.9726 30.8585 10.0083 29.8942 10.0083 28.7042C10.0083 27.5142 10.9726 26.5498 12.1627 26.5498H17.8357C19.0258 26.5498 19.9901 27.5142 19.9901 28.7042C19.9901 29.8942 19.0258 30.8585 17.8357 30.8585ZM17.8357 20.2202H12.1627C10.9726 20.2202 10.0083 19.2559 10.0083 18.0659C10.0083 16.8758 10.9726 15.9115 12.1627 15.9115H17.8357C19.0258 15.9115 19.9901 16.8758 19.9901 18.0659C19.9901 19.2456 19.0258 20.2202 17.8357 20.2202Z" fill="#FF9E1B"/>
<path d="M45.6569 22.3232H40.0659L40.0556 22.4669L38.0859 42.3586H38.5784C38.5784 39.4759 40.9174 37.1369 43.8001 37.1369C46.6828 37.1369 49.0218 39.4759 49.0218 42.3586H50.9607V29.1248L45.6569 22.3232ZM47.6881 31.6895H40.5891L41.3995 25.5753H44.0463L47.6779 30.2327V31.6895H47.6881Z" fill="#FF9E1B"/>
<path d="M43.8011 38.5627C41.7083 38.5627 40.0156 40.2554 40.0156 42.3482C40.0156 44.441 41.7083 46.1337 43.8011 46.1337C45.8939 46.1337 47.5866 44.441 47.5866 42.3482C47.5866 40.2657 45.8836 38.5627 43.8011 38.5627Z" fill="#68727C"/>
<path d="M13.1136 46.144C15.2043 46.144 16.8991 44.4491 16.8991 42.3585C16.8991 40.2678 15.2043 38.573 13.1136 38.573C11.0229 38.573 9.32812 40.2678 9.32812 42.3585C9.32812 44.4491 11.0229 46.144 13.1136 46.144Z" fill="#68727C"/>
<path d="M3.78061 13.4597H17.8351C18.2352 13.4597 18.5532 13.1416 18.5532 12.7415C18.5532 12.3415 18.2352 12.0234 17.8351 12.0234H3.78061C3.38052 12.0234 3.0625 12.3415 3.0625 12.7415C3.0625 13.1416 3.38052 13.4597 3.78061 13.4597Z" fill="#68727C"/>
<path d="M17.8365 17.3477H12.1634C11.7633 17.3477 11.4453 17.6657 11.4453 18.0658C11.4453 18.4659 11.7633 18.7839 12.1634 18.7839H17.8365C18.2366 18.7839 18.5546 18.4659 18.5546 18.0658C18.5546 17.6657 18.2366 17.3477 17.8365 17.3477Z" fill="#68727C"/>
<path d="M3.78061 24.0981H17.8351C18.2352 24.0981 18.5532 23.7801 18.5532 23.38C18.5532 22.9799 18.2352 22.6619 17.8351 22.6619H3.78061C3.38052 22.6619 3.0625 22.9799 3.0625 23.38C3.0625 23.7801 3.38052 24.0981 3.78061 24.0981Z" fill="#68727C"/>
<path d="M17.8365 27.9861H12.1634C11.7633 27.9861 11.4453 28.3041 11.4453 28.7042C11.4453 29.1043 11.7633 29.4223 12.1634 29.4223H17.8365C18.2366 29.4223 18.5546 29.1043 18.5546 28.7042C18.5546 28.3041 18.2366 27.9861 17.8365 27.9861Z" fill="#68727C"/>
<path d="M18.5532 34.0284C18.5532 33.6283 18.2352 33.3103 17.8351 33.3103H3.78061C3.38052 33.3103 3.0625 33.6283 3.0625 34.0284C3.0625 34.4285 3.38052 34.7465 3.78061 34.7465H17.8351C18.2352 34.7465 18.5532 34.4182 18.5532 34.0284Z" fill="#68727C"/>
</svg>
