<svg width="62" height="62" viewBox="0 0 62 62" fill="none" xmlns="http://www.w3.org/2000/svg">
<path d="M55.8385 23.8257H52.8471C53.4549 24.9377 53.6456 26.2291 53.3715 27.4845C53.0736 28.8596 52.2512 30.0433 51.0713 30.7966C50.2252 31.3467 49.236 31.6336 48.2349 31.6336C46.4353 31.6336 44.7787 30.7249 43.8014 29.2064L40.3571 23.8257H21.4314L17.9871 29.2064C17.0098 30.7249 15.3532 31.6336 13.5536 31.6336C12.5406 31.6336 11.5633 31.3467 10.7171 30.7966C9.53723 30.0314 8.71489 28.8596 8.41694 27.4845C8.14283 26.2291 8.33352 24.9377 8.94133 23.8257H5.94992C4.77004 23.8257 3.80469 24.7942 3.80469 25.978V32.2913C3.80469 33.475 4.77004 34.4435 5.94992 34.4435H55.8385C57.0184 34.4435 57.9838 33.475 57.9838 32.2913V25.978C57.9838 24.7942 57.0184 23.8257 55.8385 23.8257Z" fill="#FF9E1B"/>
<path d="M11.3337 53.3119C11.6555 54.9381 13.0857 56.1218 14.7423 56.1218H47.0519C48.7085 56.1218 50.1386 54.95 50.4604 53.3119L53.8451 36.1296H7.96094L11.3337 53.3119ZM45.0735 52.3075L47.898 37.9352C47.9934 37.4808 48.4224 37.1819 48.8753 37.2775C49.3282 37.3732 49.6262 37.8036 49.5308 38.258L46.7063 52.6304C46.6228 53.0249 46.2772 53.3 45.8839 53.3C45.8243 53.3 45.7766 53.3 45.7171 53.288C45.2761 53.2043 44.9781 52.7619 45.0735 52.3075ZM22.6439 41.0799H39.1503C40.6996 41.0799 41.951 42.3353 41.951 43.8898C41.951 45.4442 40.6996 46.6997 39.1503 46.6997H22.6439C21.0945 46.6997 19.8432 45.4442 19.8432 43.8898C19.8312 42.3353 21.0945 41.0799 22.6439 41.0799ZM12.895 37.2775C13.3479 37.1819 13.7888 37.4808 13.8722 37.9352L16.7087 52.3075C16.8041 52.7619 16.5061 53.2043 16.0532 53.288C15.9936 53.3 15.946 53.3 15.8864 53.3C15.4931 53.3 15.1475 53.0249 15.064 52.6304L12.2395 38.258C12.1561 37.8036 12.454 37.3612 12.895 37.2775Z" fill="#FF9E1B"/>
<path d="M11.6264 29.3977C13.2949 30.4739 15.5236 29.9836 16.5962 28.3096L19.4565 23.8258L27.382 11.4263C27.7633 10.8284 27.954 10.1469 27.954 9.4773C27.954 8.29356 27.37 7.13372 26.2974 6.44021C24.6289 5.36408 22.4002 5.85432 21.3276 7.5283L10.9113 23.8377L10.5419 24.4236C9.46925 26.0976 9.95788 28.3216 11.6264 29.3977Z" fill="#68727C"/>
<path d="M42.3374 23.8377L45.1977 28.3216C46.2703 29.9956 48.487 30.4858 50.1675 29.4097C51.836 28.3336 52.3246 26.1096 51.252 24.4236L50.8825 23.8377L40.4662 7.54027C39.3936 5.86628 37.1769 5.37604 35.4964 6.45218C34.4238 7.14568 33.8398 8.30552 33.8398 9.48927C33.8398 10.1589 34.0186 10.8285 34.4119 11.4383L42.3374 23.8377Z" fill="#68727C"/>
</svg>
