<svg width="125" height="124" viewBox="0 0 125 124" fill="none" xmlns="http://www.w3.org/2000/svg">
<circle cx="62.4806" cy="61.8732" r="61.8243" fill="#FFEAEB"/>
<g clip-path="url(#clip0_6650_40998)">
<path d="M96.9867 82.8104L68.6814 33.7821C67.4061 31.5733 65.0296 30.2012 62.4789 30.2012C59.9282 30.2012 57.5538 31.5733 56.2795 33.7821L27.9721 82.8082C26.6968 85.017 26.6968 87.7601 27.9721 89.9689C29.2474 92.1776 31.6229 93.5488 34.1725 93.5488H90.7864C93.336 93.5488 95.7136 92.1777 96.9869 89.9689C98.2622 87.7601 98.2622 85.0169 96.9867 82.8104ZM62.48 85.4857C60.0324 85.4857 58.0452 83.5006 58.0452 81.0522C58.0452 78.6046 60.0324 76.6196 62.48 76.6196C64.9274 76.6196 66.9125 78.6046 66.9125 81.0522C66.9125 83.5007 64.9274 85.4857 62.48 85.4857ZM65.2113 71.2966C65.2113 72.8052 63.9875 74.0269 62.48 74.0269C60.9703 74.0269 59.7486 72.8053 59.7486 71.2966L58.0452 51.2479C58.0452 48.7992 60.0324 46.8142 62.48 46.8142C64.9274 46.8142 66.9125 48.7993 66.9125 51.2479L65.2113 71.2966Z" fill="#FF2E2F"/>
</g>
<defs>
<clipPath id="clip0_6650_40998">
<rect width="70.9277" height="70.9277" fill="white" transform="translate(27.0156 26.4102)"/>
</clipPath>
</defs>
</svg>
