<svg width="52" height="53" viewBox="0 0 52 53" fill="none" xmlns="http://www.w3.org/2000/svg">
<circle cx="26" cy="26.8594" r="26" fill="#E6F3FB"/>
<path d="M25.9972 15.9316C19.9765 15.9316 15.0703 20.8378 15.0703 26.8586C15.0703 32.8793 19.9765 37.7855 25.9972 37.7855C32.018 37.7855 36.9242 32.8793 36.9242 26.8586C36.9242 20.8378 32.018 15.9316 25.9972 15.9316ZM25.1777 22.4878C25.1777 22.0398 25.5492 21.6683 25.9972 21.6683C26.4452 21.6683 26.8168 22.0398 26.8168 22.4878V27.9513C26.8168 28.3993 26.4452 28.7708 25.9972 28.7708C25.5492 28.7708 25.1777 28.3993 25.1777 27.9513V22.4878ZM27.0025 31.6446C26.9479 31.7866 26.8714 31.8959 26.773 32.0051C26.6638 32.1035 26.5436 32.18 26.4125 32.2346C26.2813 32.2892 26.1393 32.322 25.9972 32.322C25.8552 32.322 25.7131 32.2892 25.582 32.2346C25.4509 32.18 25.3307 32.1035 25.2214 32.0051C25.1231 31.8959 25.0466 31.7866 24.992 31.6446C24.9373 31.5134 24.9045 31.3714 24.9045 31.2293C24.9045 31.0873 24.9373 30.9452 24.992 30.8141C25.0466 30.683 25.1231 30.5628 25.2214 30.4535C25.3307 30.3552 25.4509 30.2787 25.582 30.2241C25.8443 30.1148 26.1502 30.1148 26.4125 30.2241C26.5436 30.2787 26.6638 30.3552 26.773 30.4535C26.8714 30.5628 26.9479 30.683 27.0025 30.8141C27.0571 30.9452 27.0899 31.0873 27.0899 31.2293C27.0899 31.3714 27.0571 31.5134 27.0025 31.6446Z" fill="#1E88C6"/>
</svg>
