<svg width="117" height="22" viewBox="0 0 117 22" fill="none" xmlns="http://www.w3.org/2000/svg">
<path d="M16.5008 2.71851H0.953331C0.457134 2.71851 0.00228724 3.12847 0.00228724 3.66142V5.38327C0.00228724 5.91622 0.457134 6.36718 0.953331 6.36718H16.5008C17.0384 6.36718 17.4519 5.91622 17.4932 5.38327V3.70242C17.4932 3.12847 17.0384 2.71851 16.5008 2.71851ZM16.5008 12.3936H0.953331C0.705233 12.3936 0.457134 12.5166 0.250386 12.6806C0.0849867 12.8446 -0.0390625 13.0906 -0.0390625 13.3776V15.0994C-0.0390625 15.6323 0.415785 16.0833 0.911981 16.0833H16.4595C16.997 16.0833 17.4105 15.6733 17.4519 15.0994V13.3776C17.4932 12.8036 17.0384 12.3936 16.5008 12.3936ZM9.71947 17.1902H0.953331C0.705233 17.1902 0.457134 17.2722 0.291735 17.4772C0.126336 17.6412 0.00228724 17.8871 0.00228724 18.1741V19.896C0.00228724 20.4289 0.457134 20.8799 0.953331 20.8799H9.67812C10.2157 20.8799 10.6292 20.4289 10.6292 19.896V18.1331C10.6705 17.6412 10.257 17.1902 9.71947 17.1902ZM17.4932 7.55607H0.953331C0.705233 7.55607 0.457134 7.63806 0.291735 7.84305C0.126336 8.00703 0.00228724 8.25301 0.00228724 8.53998V10.2618C0.00228724 10.7948 0.457134 11.2457 0.953331 11.2457H17.4519C17.9894 11.2457 18.4029 10.7948 18.4029 10.2618V8.53998C18.4443 7.96604 18.0308 7.55607 17.4932 7.55607Z" fill="#00C3F7"/>
<path d="M35.5659 6.61345C35.0697 6.1215 34.5322 5.75253 33.8706 5.46555C33.2503 5.17858 32.5474 5.05559 31.8444 5.05559C31.1828 5.05559 30.5212 5.17858 29.901 5.46555C29.4875 5.67054 29.1153 5.91651 28.8259 6.24448V5.95751C28.8259 5.79352 28.7432 5.67054 28.6605 5.54755C28.5364 5.42456 28.4124 5.34257 28.247 5.34257H26.0555C25.8901 5.34257 25.7247 5.42456 25.642 5.54755C25.5179 5.67054 25.4766 5.79352 25.4766 5.95751V20.3062C25.4766 20.4702 25.5593 20.5932 25.642 20.7162C25.766 20.8392 25.8901 20.8802 26.0555 20.8802H28.247C28.4124 20.8802 28.5364 20.8392 28.6605 20.7162C28.7845 20.5932 28.8259 20.4702 28.8259 20.3062V15.3867C29.1567 15.7146 29.5288 16.0016 29.9837 16.1246C30.5626 16.3296 31.1828 16.4526 31.7617 16.4526C32.4647 16.4526 33.1676 16.3296 33.7879 16.0426C34.4495 15.7966 35.0284 15.3867 35.4832 14.8947C35.9794 14.3618 36.3929 13.7468 36.641 13.0909C36.9304 12.3529 37.0958 11.533 37.0545 10.7541C37.0545 9.93415 36.9304 9.15522 36.641 8.37629C36.4756 7.76135 36.0621 7.1464 35.5659 6.61345ZM33.6225 11.82C33.4984 12.107 33.333 12.3939 33.1263 12.6399C32.6714 13.1319 32.0512 13.3778 31.3896 13.3778C31.0588 13.3778 30.728 13.2959 30.4385 13.1729C30.1491 13.0499 29.8596 12.8449 29.6529 12.6399C29.4461 12.3939 29.2394 12.107 29.1153 11.82C28.8672 11.164 28.8672 10.4671 29.1153 9.81116C29.2394 9.52419 29.4048 9.23722 29.6529 8.99124C29.901 8.74526 30.1491 8.58127 30.4385 8.41729C30.728 8.2943 31.0588 8.21231 31.3896 8.21231C31.7204 8.21231 32.0512 8.2943 32.382 8.41729C32.6714 8.54028 32.9195 8.74526 33.1676 8.95024C33.3744 9.19622 33.5398 9.4422 33.6638 9.77017C33.8706 10.4261 33.8706 11.164 33.6225 11.82ZM49.0046 5.38356H46.813C46.6476 5.38356 46.5236 5.46555 46.3995 5.54755C46.2755 5.67054 46.2341 5.83452 46.2341 5.99851V6.24448C45.9447 5.91651 45.6139 5.67054 45.2417 5.50655C44.6628 5.21958 44.0012 5.09659 43.3396 5.09659C41.9338 5.09659 40.5692 5.67054 39.5768 6.65445C39.0806 7.1874 38.6671 7.80234 38.3777 8.45829C38.0469 9.19622 37.9228 10.0161 37.9228 10.8361C37.9228 11.656 38.0469 12.4759 38.3777 13.2139C38.6671 13.8698 39.0806 14.4847 39.5768 15.0177C40.5692 16.0016 41.8924 16.5756 43.2983 16.5756C43.9599 16.5756 44.6215 16.4526 45.2004 16.1656C45.5725 15.9606 45.9447 15.7146 46.1928 15.4277V15.7146C46.1928 15.8786 46.2755 16.0016 46.3582 16.1246C46.4822 16.2066 46.6063 16.2886 46.7717 16.2886H48.9632C49.1286 16.2886 49.2527 16.2066 49.3767 16.1246C49.5008 16.0016 49.5421 15.8786 49.5421 15.7146V5.99851C49.5421 5.83452 49.5008 5.71153 49.3767 5.58854C49.294 5.42456 49.17 5.38356 49.0046 5.38356ZM46.0274 11.779C45.9033 12.066 45.7379 12.3529 45.5312 12.5989C45.3244 12.8039 45.035 13.0089 44.7455 13.1729C44.1253 13.4598 43.4223 13.4598 42.8021 13.1729C42.5127 13.0499 42.2232 12.8449 42.0165 12.5989C41.8097 12.3529 41.603 12.066 41.5203 11.779C41.2722 11.123 41.2722 10.4261 41.5203 9.77017C41.6443 9.48319 41.8097 9.19622 42.0165 8.95024C42.2232 8.70426 42.5127 8.54028 42.8021 8.37629C43.4223 8.08932 44.1253 8.08932 44.7455 8.37629C45.035 8.49928 45.2831 8.70426 45.5312 8.90925C45.7379 9.15522 45.9033 9.4012 46.0274 9.72917C46.3168 10.4261 46.3168 11.164 46.0274 11.779ZM70.7959 10.5081C70.4651 10.2211 70.1343 10.0161 69.7208 9.85216C69.3073 9.68818 68.8938 9.56519 68.4389 9.48319L66.7849 9.15522C66.3714 9.07323 66.0406 8.95024 65.8753 8.82725C65.7512 8.74526 65.6685 8.58127 65.6685 8.41729C65.6685 8.2533 65.7512 8.08932 65.9993 7.96633C66.2887 7.80234 66.6195 7.72035 66.909 7.76135C67.3225 7.76135 67.7773 7.84334 68.1495 8.00733C68.5216 8.17131 68.8938 8.37629 69.2246 8.58127C69.7208 8.86825 70.1343 8.82725 70.4237 8.49928L71.2094 7.59736C71.3748 7.43338 71.4575 7.2284 71.4575 7.02341C71.4575 6.81843 71.3334 6.57245 71.168 6.44947C70.8372 6.16249 70.2997 5.83452 69.5554 5.54755C68.8524 5.26057 67.9427 5.09659 66.8676 5.09659C66.206 5.09659 65.5858 5.17858 64.9656 5.38356C64.428 5.54755 63.9318 5.79352 63.5183 6.1215C63.1048 6.40847 62.8154 6.81843 62.5673 7.26939C62.3605 7.72035 62.2365 8.17131 62.2365 8.66327C62.2365 9.56519 62.5259 10.3031 63.0635 10.8361C63.601 11.369 64.304 11.738 65.2137 11.902L66.9503 12.2709C67.3225 12.3529 67.6946 12.4349 68.0668 12.5989C68.2735 12.6809 68.3976 12.8449 68.3976 13.0909C68.3976 13.2959 68.3149 13.4598 68.0668 13.6238C67.86 13.7878 67.4879 13.8698 67.033 13.8698C66.5782 13.8698 66.082 13.7878 65.6685 13.5828C65.255 13.3778 64.8829 13.1319 64.5521 12.8449C64.3867 12.7219 64.2213 12.6399 64.0559 12.5579C63.8491 12.5169 63.601 12.5579 63.3529 12.7629L62.4019 13.5008C62.1538 13.7058 61.9884 14.0338 62.0711 14.3208C62.1124 14.6487 62.4019 14.9357 62.8567 15.3047C64.0559 16.1246 65.5031 16.5346 66.9503 16.4936C67.6119 16.4936 68.3149 16.4116 68.9351 16.2066C69.514 16.0426 70.0102 15.7966 70.4651 15.4277C70.8786 15.0997 71.2507 14.6897 71.4575 14.2388C71.7056 13.7878 71.7883 13.2959 71.7883 12.7629C71.7883 12.3119 71.7056 11.861 71.4988 11.41C71.3334 11.123 71.0853 10.7951 70.7959 10.5081ZM80.3063 13.1319C80.2236 12.9679 80.0169 12.8449 79.8101 12.8039C79.6034 12.8039 79.3966 12.8859 79.2312 12.9679C78.9831 13.1319 78.6523 13.2549 78.3215 13.2549C78.2388 13.2549 78.1148 13.2549 77.9907 13.2139C77.8667 13.2139 77.784 13.1319 77.7013 13.0499C77.6186 12.9679 77.5359 12.8449 77.4532 12.7219C77.3705 12.5579 77.3291 12.3529 77.3705 12.148V8.21231H80.2236C80.389 8.21231 80.5544 8.13032 80.6785 8.00733C80.8025 7.88434 80.8852 7.76135 80.8852 7.59736V5.91651C80.8852 5.75253 80.8025 5.58854 80.6785 5.50655C80.5544 5.38356 80.4304 5.34257 80.265 5.34257H77.4118V2.6778C77.4118 2.51382 77.3705 2.34983 77.2464 2.26784C77.1224 2.14485 76.9983 2.10386 76.8329 2.10386H74.6414C74.476 2.10386 74.3106 2.14485 74.2279 2.26784C74.1038 2.39083 74.0625 2.55481 74.0625 2.6778V5.38356H72.822C72.6566 5.38356 72.4912 5.46555 72.4085 5.58854C72.2845 5.71153 72.2431 5.83452 72.2431 5.99851V7.67936C72.2431 7.84334 72.2845 7.96633 72.4085 8.08932C72.4912 8.21231 72.6566 8.2943 72.822 8.2943H74.0625V12.9679C74.0625 13.5418 74.1452 14.0748 74.3933 14.5667C74.6 14.9767 74.8895 15.3457 75.2203 15.6326C75.5511 15.9196 75.9646 16.1246 76.4194 16.2476C76.8743 16.3706 77.3291 16.4526 77.784 16.4526C78.4042 16.4526 78.9831 16.3706 79.562 16.1656C80.0996 16.0016 80.5958 15.6736 80.9679 15.3047C81.216 15.0587 81.2573 14.6487 81.0506 14.3618L80.3063 13.1319ZM92.2977 5.38356H90.1062C89.9408 5.38356 89.8167 5.46555 89.6927 5.54755C89.5686 5.67054 89.5273 5.83452 89.5273 5.99851V6.24448C89.2378 5.91651 88.907 5.67054 88.5349 5.50655C87.956 5.21958 87.2944 5.09659 86.6328 5.09659C85.2269 5.09659 83.9037 5.67054 82.9113 6.65445C82.4151 7.1874 82.0016 7.80234 81.7122 8.45829C81.3814 9.19622 81.2573 10.0161 81.2573 10.7951C81.2573 11.615 81.3814 12.3939 81.7122 13.1729C82.0016 13.8288 82.4151 14.4437 82.9113 14.9767C83.9037 15.9606 85.2269 16.5346 86.6328 16.5346C87.2944 16.5346 87.956 16.4116 88.5349 16.1246C88.907 15.9196 89.2792 15.6736 89.5273 15.3867V15.6736C89.5273 15.8376 89.5686 15.9606 89.6927 16.0836C89.8167 16.2066 89.9408 16.2476 90.1062 16.2476H92.2977C92.6285 16.2476 92.8766 16.0016 92.8766 15.6736V5.99851C92.8766 5.83452 92.8353 5.71153 92.7112 5.58854C92.5872 5.42456 92.4631 5.38356 92.2977 5.38356ZM89.3205 11.779C89.1965 12.066 89.0311 12.3529 88.8244 12.5989C88.5763 12.8039 88.3281 13.0089 88.0387 13.1729C87.7493 13.2959 87.3771 13.3778 87.0463 13.3778C86.7155 13.3778 86.3847 13.2959 86.0953 13.1729C85.8058 13.0499 85.5164 12.8449 85.3096 12.5989C85.1029 12.3529 84.8961 12.066 84.8134 11.779C84.5653 11.123 84.5653 10.4261 84.8134 9.77017C84.9375 9.48319 85.1029 9.19622 85.3096 8.95024C85.5577 8.70426 85.8058 8.54028 86.0953 8.37629C86.3847 8.2533 86.7155 8.17131 87.0463 8.17131C87.3771 8.17131 87.7079 8.2533 88.0387 8.37629C88.3281 8.49928 88.5763 8.70426 88.8244 8.90925C89.0311 9.15522 89.2378 9.4012 89.3205 9.72917C89.61 10.4261 89.61 11.164 89.3205 11.779ZM104.289 12.9679L103.049 12.025C102.801 11.82 102.594 11.779 102.387 11.861C102.222 11.943 102.056 12.066 101.932 12.189C101.643 12.5169 101.353 12.8039 100.981 13.0499C100.609 13.2549 100.196 13.3778 99.7407 13.3368C99.2445 13.3368 98.7896 13.2139 98.3761 12.9269C97.9626 12.6399 97.6732 12.2299 97.5078 11.779C97.3838 11.451 97.3424 11.123 97.3424 10.7951C97.3424 10.4671 97.3838 10.0981 97.5078 9.77017C97.6318 9.48319 97.7972 9.19622 98.004 8.95024C98.2521 8.70426 98.5002 8.54028 98.7896 8.41729C99.0791 8.2943 99.4512 8.21231 99.782 8.21231C100.196 8.21231 100.65 8.2943 100.981 8.49928C101.353 8.74526 101.643 9.03223 101.932 9.3602C102.056 9.48319 102.222 9.60618 102.387 9.68818C102.594 9.77017 102.801 9.72917 103.049 9.52419L104.289 8.58127C104.455 8.45829 104.579 8.3353 104.62 8.17131C104.703 7.96633 104.661 7.76135 104.579 7.59736C104.082 6.85943 103.421 6.24448 102.635 5.79352C101.808 5.34257 100.816 5.09659 99.6993 5.09659C98.9137 5.09659 98.128 5.26057 97.4251 5.54755C96.7221 5.83452 96.1019 6.24448 95.5644 6.77744C95.0268 7.31039 94.6133 7.92533 94.3239 8.58127C93.745 10.0161 93.745 11.656 94.3239 13.0909C94.6133 13.7878 95.0268 14.4028 95.5644 14.8947C96.6808 15.9606 98.128 16.5346 99.6993 16.5346C100.816 16.5346 101.808 16.2886 102.635 15.8376C103.421 15.3867 104.082 14.7717 104.579 14.0338C104.703 13.8698 104.703 13.6648 104.62 13.4598C104.537 13.2549 104.413 13.0909 104.289 12.9679ZM115.908 15.2227L112.476 10.1801L115.412 6.32648C115.536 6.16249 115.578 5.91651 115.536 5.71153C115.495 5.54755 115.33 5.38356 114.999 5.38356H112.683C112.559 5.38356 112.435 5.42456 112.311 5.46555C112.146 5.54755 112.063 5.62954 111.98 5.79352L109.623 9.07323H109.044V1.32493C109.044 1.16094 109.003 1.03795 108.879 0.914962C108.755 0.791973 108.631 0.750977 108.465 0.750977H106.274C106.109 0.750977 105.984 0.791973 105.86 0.914962C105.736 1.03795 105.695 1.16094 105.695 1.32493V15.5916C105.695 15.7556 105.778 15.9196 105.86 16.0016C105.984 16.1246 106.109 16.1656 106.274 16.1656H108.465C108.631 16.1656 108.755 16.0836 108.879 16.0016C109.003 15.8786 109.044 15.7556 109.044 15.5916V11.82H109.665L112.228 15.7556C112.394 16.0426 112.683 16.2066 112.973 16.2066H115.412C115.784 16.2066 115.95 16.0426 115.991 15.8786C116.074 15.6736 116.032 15.4277 115.908 15.2227ZM61.4095 5.38356H58.9698C58.8044 5.38356 58.5977 5.42456 58.4736 5.58854C58.3496 5.71153 58.2669 5.83452 58.2669 5.99851L56.4475 12.6399H55.9927L54.0492 5.95751C54.0079 5.83452 53.9665 5.67054 53.8425 5.54755C53.7184 5.42456 53.553 5.34257 53.3876 5.34257H50.8653C50.5345 5.34257 50.3278 5.46555 50.2451 5.67054C50.1624 5.87552 50.1624 6.0805 50.2451 6.24448L53.3463 15.6326C53.3876 15.7556 53.4703 15.9196 53.5944 16.0016C53.7184 16.1246 53.8838 16.1656 54.0492 16.1656H55.3724L55.2484 16.4526L54.9589 17.3135C54.8762 17.5595 54.7108 17.8054 54.4627 18.0104C54.256 18.1744 54.0079 18.2564 53.7184 18.2564C53.5117 18.2564 53.2636 18.2154 53.0568 18.1334C52.8501 18.0514 52.6433 17.9284 52.4779 17.8054C52.3125 17.6825 52.1058 17.6415 51.9404 17.6415H51.899C51.6509 17.6415 51.4442 17.7645 51.3615 17.9694L50.5758 19.1173C50.2451 19.6093 50.4518 19.9373 50.6585 20.1012C51.072 20.4702 51.5682 20.7572 52.1058 20.9622C52.6847 21.1671 53.3049 21.2491 53.9665 21.2491C55.083 21.2491 56.034 20.9622 56.737 20.3472C57.4813 19.6913 58.0188 18.8304 58.3083 17.8874L61.9057 6.28548C61.9884 6.0805 61.9884 5.87552 61.9057 5.67054C61.9057 5.50655 61.7403 5.38356 61.4095 5.38356Z" fill="#011B33"/>
</svg>
