<svg width="80" height="80" viewBox="0 0 80 80" fill="none" xmlns="http://www.w3.org/2000/svg">
<path d="M30.1598 52.1661C29.9467 53.0802 30.9394 53.7997 31.7418 53.3127L39.3717 48.6827C39.7096 48.4776 40.1335 48.4776 40.4714 48.6827L48.1012 53.3127C48.9037 53.7997 49.8963 53.0802 49.6833 52.1661L47.6625 43.4963C47.5731 43.113 47.7035 42.7118 48.0011 42.4543L54.7897 36.5795C55.5006 35.9643 55.1181 34.7968 54.181 34.7216L45.2449 34.0041C44.8503 33.9724 44.5062 33.7234 44.3527 33.3586L40.8985 25.1465C40.5345 24.2813 39.3085 24.2813 38.9446 25.1465L35.4903 33.3586C35.3368 33.7234 34.9928 33.9724 34.5982 34.0041L25.662 34.7216C24.7249 34.7968 24.3424 35.9643 25.0533 36.5795L31.8419 42.4543C32.1395 42.7118 32.2699 43.113 32.1806 43.4963L30.1598 52.1661ZM40.6653 78.7939C40.2527 79.2004 39.5903 79.2004 39.1777 78.7939L28.3958 68.1729C28.1975 67.9776 27.9304 67.8681 27.652 67.8681H12.7184C12.133 67.8681 11.6585 67.3936 11.6585 66.8083V51.8746C11.6585 51.5963 11.549 51.3291 11.3537 51.1308L0.732679 40.3489C0.326262 39.9363 0.326262 39.2739 0.732679 38.8613L11.3537 28.0794C11.549 27.8811 11.6585 27.614 11.6585 27.3356L11.6585 12.402C11.6585 11.8166 12.133 11.3421 12.7184 11.3421L27.652 11.3421C27.9304 11.3421 28.1975 11.2326 28.3958 11.0373L39.1777 0.416273C39.5903 0.00985572 40.2527 0.00985545 40.6653 0.416273L51.4472 11.0373C51.6455 11.2326 51.9127 11.3421 52.191 11.3421H67.1247C67.71 11.3421 68.1845 11.8166 68.1845 12.402V27.3356C68.1845 27.614 68.294 27.8811 68.4893 28.0794L79.1104 38.8613C79.5168 39.2739 79.5168 39.9363 79.1104 40.3489L68.4893 51.1308C68.294 51.3291 68.1845 51.5963 68.1845 51.8746V66.8083C68.1845 67.3936 67.71 67.8681 67.1247 67.8681H52.191C51.9127 67.8681 51.6455 67.9776 51.4472 68.1729L40.6653 78.7939Z" fill="#007CC3"/>
</svg>
