<svg width="72" height="55" viewBox="0 0 72 55" fill="none" xmlns="http://www.w3.org/2000/svg">
<path fill-rule="evenodd" clip-rule="evenodd" d="M51.9062 12.7852C72.4758 8.12677 79.5897 44.2957 53.0438 44.9467C69.5683 36.8072 70.163 19.4079 51.9062 12.7852Z" fill="#BAE1F8"/>
<path fill-rule="evenodd" clip-rule="evenodd" d="M24.5049 6.19348C31.8416 -0.255448 45.6246 0.674097 44.8962 16.4693C41.9725 35.4696 15.9216 52.8638 7.48549 33.4888C3.418 25.1931 8.34187 15.6129 19.367 12.4553C9.03754 11.4249 -1.82716 23.012 3.7926 36.7C15.46 58.1616 47.4651 43.39 49.2313 15.0242C49.9003 1.96512 32.9343 -5.3136 24.5049 6.19348Z" fill="#BAE1F8"/>
<path fill-rule="evenodd" clip-rule="evenodd" d="M27.5848 15.1094C30.9343 15.3056 34.0154 17.6919 34.135 21.8761C33.7921 21.8761 33.4493 21.8761 33.1064 21.8761C32.9621 18.6641 31.0855 16.7514 27.4766 16.1379C27.5127 15.7951 27.5487 15.4522 27.5848 15.1094Z" fill="#28166F"/>
<path fill-rule="evenodd" clip-rule="evenodd" d="M27.4958 17.3281C29.7833 17.4621 31.8874 19.0918 31.9691 21.9493C31.7349 21.9493 31.5008 21.9493 31.2667 21.9493C31.1681 19.7558 29.8865 18.4495 27.4219 18.0305C27.4465 17.7964 27.4712 17.5623 27.4958 17.3281Z" fill="#28166F"/>
<path fill-rule="evenodd" clip-rule="evenodd" d="M18.368 19.6743C17.8443 23.8256 17.3206 27.9769 16.7969 32.1283C17.2823 32.1411 17.7677 32.1538 18.253 32.1666C18.4063 31.0809 18.5596 29.9952 18.7129 28.9094C19.4537 28.6156 20.1946 28.3218 20.9354 28.0281C21.4719 29.4076 22.0084 30.7871 22.5449 32.1666C23.0941 32.1666 23.6434 32.1666 24.1927 32.1666C23.4518 30.5572 22.7109 28.9478 21.9701 27.3383C23.103 26.3981 24.1776 25.3412 24.8441 23.468C24.3715 23.4552 23.8989 23.4424 23.4263 23.4297C21.8089 25.9684 20.2523 27.3517 18.7512 27.6832C19.1599 24.988 19.5687 22.2928 19.9775 19.5977C19.441 19.6232 18.9045 19.6487 18.368 19.6743Z" fill="#007CC3"/>
<path fill-rule="evenodd" clip-rule="evenodd" d="M27.2856 23.4297H28.7668L27.6776 32.1427H26.1094L27.2856 23.4297Z" fill="#007CC3"/>
<path d="M28.527 21.8158C29.0684 21.8158 29.5072 21.377 29.5072 20.8356C29.5072 20.2943 29.0684 19.8555 28.527 19.8555C27.9857 19.8555 27.5469 20.2943 27.5469 20.8356C27.5469 21.377 27.9857 21.8158 28.527 21.8158Z" fill="#007CC3"/>
<path fill-rule="evenodd" clip-rule="evenodd" d="M37.916 23.6466C37.887 23.9806 37.858 24.3146 37.8289 24.6486C34.4018 23.8354 32.543 24.7647 32.2526 27.4367C31.2546 31.4591 33.5791 31.4507 37.1319 31.0091C37.1028 31.2995 37.0738 31.5899 37.0447 31.8804C32.724 32.9121 29.9648 32.128 30.6407 27.3496C31.2143 23.9914 33.3925 22.4739 37.916 23.6466Z" fill="#898A8D"/>
<path fill-rule="evenodd" clip-rule="evenodd" d="M43.7964 23.3411C50.5746 23.4426 47.5177 33.7241 42.1411 32.1412C37.3779 31.299 38.3654 23.2249 43.7964 23.3411ZM43.7192 24.3431C49.0085 24.4223 46.6232 32.4453 42.4276 31.2102C38.7106 30.553 39.4813 24.2523 43.7192 24.3431Z" fill="#898A8D"/>
<path fill-rule="evenodd" clip-rule="evenodd" d="M49.1992 31.9234C49.5913 29.1062 49.9834 26.289 50.3755 23.4718C50.7676 23.4863 51.1596 23.5008 51.5517 23.5153C51.4936 24.0672 51.4356 24.619 51.3775 25.1708C54.1659 22.9339 56.4023 22.2949 57.2152 25.1708C59.684 22.8904 62.7626 22.5853 62.7915 25.3451C62.5447 27.6105 62.2978 29.8759 62.0509 32.1412C61.5717 32.1122 61.0925 32.0831 60.6133 32.0541C60.8747 29.8613 61.1361 27.6686 61.3974 25.4758C60.9812 23.6253 59.2019 24.5918 57.0409 26.3471C56.7795 28.2785 56.5182 30.2099 56.2568 32.1412C55.7921 32.1267 55.3274 32.1122 54.8627 32.0977C55.1241 30.0937 55.3855 28.0897 55.6469 26.0857C55.8937 23.7768 54.456 23.8494 51.3339 26.3035C51.087 28.1768 50.8402 30.0501 50.5933 31.9234C50.1286 31.9234 49.6639 31.9234 49.1992 31.9234Z" fill="#898A8D"/>
<path fill-rule="evenodd" clip-rule="evenodd" d="M15.396 22.8961C15.396 23.2513 15.396 23.6065 15.396 23.9617C12.5369 24.0176 9.33723 23.3607 9.59417 24.9089C9.16728 26.6235 15.5455 26.6788 14.9224 29.8583C14.5328 32.0455 11.2078 31.9791 7.27344 31.4449C7.30503 31.0502 7.33661 30.6555 7.36816 30.2608C10.4444 30.4743 13.3533 30.8193 13.241 29.5031C13.5656 27.6569 7.28824 27.7022 7.93651 24.6485C8.06083 22.6868 10.5119 22.4737 15.396 22.8961Z" fill="#007CC3"/>
<path d="M32.1546 52.5222C31.4367 52.5222 30.8578 52.3138 30.4179 51.897C29.9779 51.4802 29.7463 50.9939 29.7232 50.4381H31.1039C31.1502 50.6929 31.2659 50.8926 31.4512 51.0373C31.6422 51.1762 31.8767 51.2457 32.1546 51.2457C32.3919 51.2457 32.5829 51.1965 32.7277 51.0981C32.8782 50.9997 32.9534 50.8665 32.9534 50.6986C32.9534 50.4034 32.6842 50.1805 32.1459 50.03L31.5467 49.8737C31.0315 49.7348 30.6263 49.509 30.331 49.1964C30.0358 48.8838 29.8853 48.493 29.8795 48.0241C29.8795 47.451 30.0705 46.9966 30.4526 46.6608C30.8405 46.3193 31.3557 46.1485 31.9982 46.1485C32.6466 46.1485 33.1734 46.3453 33.5786 46.739C33.9839 47.1269 34.1981 47.5726 34.2212 48.0762H32.8492C32.7855 47.8505 32.6756 47.6855 32.5193 47.5813C32.363 47.4771 32.1893 47.425 31.9982 47.425C31.7841 47.425 31.6104 47.4684 31.4772 47.5552C31.3441 47.6421 31.2746 47.7665 31.2688 47.9286C31.263 48.0907 31.3209 48.2239 31.4425 48.3281C31.5699 48.4323 31.7609 48.5191 32.0156 48.5886L32.719 48.7709C33.2342 48.9099 33.6336 49.1385 33.9173 49.4569C34.2067 49.7753 34.3515 50.1747 34.3515 50.6552C34.3515 51.1878 34.1488 51.6336 33.7436 51.9925C33.3384 52.3456 32.8087 52.5222 32.1546 52.5222ZM35.6675 52.418V46.2527H37.0482V48.6667H39.5317V46.2527H40.9124V52.418H39.5317V49.9779H37.0482V52.418H35.6675ZM44.1244 50.6379C44.4775 51.0026 44.903 51.1849 45.4009 51.1849C45.8987 51.1849 46.3213 51.0026 46.6687 50.6379C47.016 50.2732 47.1897 49.839 47.1897 49.3353C47.1897 48.8317 47.016 48.3975 46.6687 48.0328C46.3213 47.6681 45.8987 47.4858 45.4009 47.4858C44.903 47.4858 44.4775 47.6681 44.1244 48.0328C43.7771 48.3975 43.6034 48.8317 43.6034 49.3353C43.6034 49.839 43.7771 50.2732 44.1244 50.6379ZM47.6499 51.5844C47.0305 52.2096 46.2808 52.5222 45.4009 52.5222C44.521 52.5222 43.7684 52.2125 43.1432 51.593C42.5238 50.9678 42.2141 50.2153 42.2141 49.3353C42.2141 48.4554 42.5238 47.7057 43.1432 47.0863C43.7684 46.4611 44.521 46.1485 45.4009 46.1485C46.2808 46.1485 47.0305 46.4611 47.6499 47.0863C48.2751 47.7115 48.5877 48.4612 48.5877 49.3353C48.5877 50.2095 48.2751 50.9591 47.6499 51.5844ZM53.5261 46.8606C53.9429 47.2658 54.1513 47.7665 54.1513 48.3628C54.1513 48.9591 53.9429 49.4598 53.5261 49.865C53.1151 50.2645 52.5999 50.4642 51.9804 50.4642H51.2684V52.418H49.8877V46.2527H51.9804C52.5999 46.2527 53.1151 46.4553 53.5261 46.8606ZM52.814 48.3628C52.814 48.1312 52.733 47.9402 52.5709 47.7897C52.4146 47.6334 52.212 47.5552 51.9631 47.5552H51.2684V49.1704H51.9631C52.2062 49.1704 52.4088 49.0922 52.5709 48.9359C52.733 48.7796 52.814 48.5886 52.814 48.3628Z" fill="#007CC3"/>
</svg>
