<svg width="61" height="61" viewBox="0 0 61 61" fill="none" xmlns="http://www.w3.org/2000/svg">
<path d="M23.2979 39.4144C23.1456 40.0675 23.8548 40.5816 24.4282 40.2337L29.8794 36.9257C30.1208 36.7792 30.4236 36.7792 30.665 36.9257L36.1162 40.2337C36.6896 40.5816 37.3988 40.0675 37.2465 39.4144L35.8028 33.2202C35.739 32.9464 35.8321 32.6598 36.0447 32.4758L40.8949 28.2785C41.4028 27.839 41.1295 27.0049 40.46 26.9511L34.0755 26.4385C33.7936 26.4158 33.5478 26.238 33.4381 25.9773L30.9702 20.1101C30.7102 19.492 29.8342 19.492 29.5742 20.1101L27.1063 25.9773C26.9966 26.238 26.7508 26.4158 26.4689 26.4385L20.0844 26.9511C19.4149 27.0049 19.1416 27.839 19.6495 28.2785L24.4997 32.4758C24.7123 32.6598 24.8055 32.9464 24.7416 33.2202L23.2979 39.4144ZM30.8036 58.4389C30.5088 58.7293 30.0356 58.7293 29.7408 58.4389L22.0376 50.8507C21.8959 50.7111 21.705 50.6329 21.5062 50.6329H10.8367C10.4185 50.6329 10.0795 50.2939 10.0795 49.8757V39.2062C10.0795 39.0073 10.0013 38.8165 9.86172 38.6748L2.27347 30.9716C1.9831 30.6768 1.9831 30.2035 2.27347 29.9088L9.86172 22.2055C10.0013 22.0639 10.0795 21.873 10.0795 21.6741L10.0795 11.0047C10.0795 10.5865 10.4185 10.2475 10.8367 10.2475L21.5062 10.2475C21.705 10.2475 21.8959 10.1692 22.0376 10.0297L29.7408 2.44144C30.0356 2.15107 30.5088 2.15107 30.8036 2.44144L38.5068 10.0297C38.6485 10.1692 38.8394 10.2475 39.0382 10.2475H49.7077C50.1259 10.2475 50.4649 10.5865 50.4649 11.0047V21.6741C50.4649 21.873 50.5431 22.0639 50.6827 22.2055L58.2709 29.9088C58.5613 30.2035 58.5613 30.6768 58.2709 30.9716L50.6827 38.6748C50.5431 38.8165 50.4649 39.0073 50.4649 39.2062V49.8756C50.4649 50.2939 50.1259 50.6329 49.7077 50.6329H39.0382C38.8394 50.6329 38.6485 50.7111 38.5068 50.8507L30.8036 58.4389Z" fill="#F6F6F6"/>
</svg>
