<svg width="117" height="84" viewBox="0 0 117 84" fill="none" xmlns="http://www.w3.org/2000/svg">
<path d="M-6.83511 54.5002L78.6663 -5.9999L116.283 0.214414L-0.803398 83.1781L-6.83511 54.5002Z" fill="#007CC3"/>
<g clip-path="url(#clip0_5871_45527)">
<path d="M14.0287 59.0691C14.092 59.2314 14.3195 59.2375 14.3913 59.0787L15.0741 57.5689C15.1043 57.5021 15.1692 57.4576 15.2425 57.4535L16.897 57.3621C17.071 57.3524 17.1475 57.1381 17.0189 57.0204L15.7997 55.9046C15.7458 55.8553 15.7237 55.7802 15.7422 55.7095L16.1655 54.0974C16.2098 53.9285 16.0288 53.7899 15.8773 53.8767L14.4334 54.7045C14.3696 54.741 14.2908 54.739 14.229 54.6992L12.8382 53.8039C12.6917 53.7096 12.5039 53.8382 12.539 54.0089L12.8716 55.6292C12.8864 55.7012 12.8598 55.7754 12.8027 55.8216L11.5093 56.8692C11.3737 56.9791 11.4376 57.198 11.6111 57.2177L13.2673 57.4051C13.3399 57.4133 13.4019 57.4611 13.4285 57.5292L14.0287 59.0691ZM18.4319 62.045C18.4113 62.1506 18.3099 62.2201 18.204 62.2011L15.4382 61.7058C15.3873 61.6967 15.3349 61.7079 15.2923 61.7372L13.005 63.3042C12.9154 63.3656 12.7929 63.3427 12.7315 63.2531L11.1645 60.9658C11.1353 60.9232 11.0905 60.8937 11.0397 60.8839L8.28165 60.347C8.17611 60.3264 8.1066 60.225 8.12555 60.1192L8.6209 57.3533C8.63001 57.3024 8.61875 57.25 8.58954 57.2074L7.02253 54.9202C6.9611 54.8305 6.98399 54.708 7.07364 54.6466L9.36089 53.0796C9.40352 53.0504 9.43295 53.0056 9.44282 52.9549L9.9797 50.1968C10.0002 50.0912 10.1017 50.0217 10.2075 50.0407L12.9734 50.536C13.0243 50.5451 13.0767 50.5339 13.1193 50.5047L15.4065 48.9377C15.4962 48.8762 15.6187 48.8991 15.6801 48.9888L17.2471 51.276C17.2763 51.3187 17.3211 51.3481 17.3718 51.358L20.1299 51.8948C20.2355 51.9154 20.305 52.0168 20.286 52.1227L19.7907 54.8885C19.7815 54.9394 19.7928 54.9918 19.822 55.0344L21.389 57.3217C21.4505 57.4113 21.4276 57.5338 21.3379 57.5952L19.0507 59.1622C19.008 59.1914 18.9786 59.2362 18.9687 59.287L18.4319 62.045Z" fill="white"/>
</g>
<path d="M29.8868 51.6054C28.9463 52.2497 28.0052 52.5126 27.0634 52.3942C26.1242 52.2618 25.3866 51.8399 24.8506 51.1283L26.2984 50.1364C26.6361 50.5232 27.0533 50.7162 27.5497 50.7155C28.0545 50.7091 28.5213 50.5589 28.9503 50.265C29.3793 49.9711 29.6621 49.6319 29.7987 49.2474C29.9379 48.849 29.8916 48.4807 29.6599 48.1425C29.2529 47.5485 28.5548 47.3965 27.5655 47.6864L26.243 48.0651C24.4968 48.5948 23.1997 48.2409 22.3519 47.0035C21.8376 46.2528 21.6864 45.4836 21.8983 44.6959C22.1185 43.9026 22.6452 43.2206 23.4784 42.6497C24.3446 42.0563 25.2059 41.836 26.0621 41.9888C26.9127 42.1333 27.5986 42.5241 28.1198 43.161L26.672 44.1529C26.3156 43.8273 25.9322 43.6657 25.5217 43.6682C25.1055 43.6623 24.7242 43.7781 24.3778 44.0155C23.9983 44.2755 23.7498 44.5851 23.6323 44.9444C23.5091 45.2955 23.548 45.6264 23.7489 45.9373C23.9636 46.2508 24.2337 46.4415 24.5591 46.5095C24.8789 46.5693 25.2902 46.5239 25.7931 46.3733L27.1194 45.9737C28.8935 45.4492 30.2157 45.8222 31.0861 47.0926C31.5948 47.8351 31.738 48.6279 31.5157 49.4712C31.2959 50.3005 30.753 51.0119 29.8868 51.6054ZM36.8464 46.71C36.2195 47.1395 35.5893 47.3167 34.9559 47.2415C34.3252 47.1524 33.7809 46.7737 33.3231 46.1055L31.2799 43.1233L29.993 44.005L29.1622 42.7923L30.4491 41.9106L29.2707 40.1906L30.6319 39.258L31.8103 40.978L33.5798 39.7657L34.4107 40.9784L32.6411 42.1907L34.5317 44.9502C34.7917 45.3297 35.0607 45.5454 35.3387 45.5974C35.6111 45.6411 35.9288 45.5386 36.2917 45.2899C36.5887 45.0864 36.8038 44.8785 36.937 44.666L37.7679 45.8787C37.5331 46.1729 37.2259 46.45 36.8464 46.71ZM41.6466 43.5122C40.8051 44.0887 39.8809 44.2613 38.8739 44.03C37.8751 43.793 37.0705 43.229 36.4601 42.3381C35.8497 41.4471 35.6143 40.4931 35.754 39.4762C35.902 38.4536 36.3967 37.654 37.2381 37.0775C37.6588 36.7893 38.1116 36.6185 38.5963 36.5652C39.0754 36.5037 39.5002 36.5399 39.8708 36.6739L39.3028 35.8448L40.664 34.9123L44.9029 41.0995L43.5417 42.032L42.9737 41.203C42.9648 41.5969 42.848 42.0103 42.6233 42.4431C42.3929 42.8676 42.0673 43.224 41.6466 43.5122ZM39.3323 42.4431C39.9387 42.5852 40.5101 42.4726 41.0463 42.1052C41.5825 41.7379 41.8939 41.2457 41.9804 40.6289C42.0669 40.012 41.918 39.4231 41.5336 38.8621C41.1493 38.3012 40.6539 37.9496 40.0474 37.8075C39.441 37.6654 38.8696 37.7781 38.3334 38.1454C37.7972 38.5128 37.4858 39.0049 37.3993 39.6218C37.3128 40.2386 37.4617 40.8276 37.8461 41.3885C38.2304 41.9495 38.7258 42.301 39.3323 42.4431ZM46.747 39.8361L42.5081 33.6489L43.8692 32.7163L44.6238 33.8176C44.5019 33.392 44.5201 32.9674 44.6784 32.5438C44.8449 32.1145 45.1055 31.7784 45.4603 31.5354C45.6748 31.3884 45.8634 31.2834 46.0263 31.2203L46.9843 32.6186C46.7354 32.68 46.4831 32.7983 46.2274 32.9735C45.8149 33.2561 45.5802 33.6654 45.5232 34.2015C45.4605 34.7293 45.6326 35.2902 46.0396 35.8842L48.1082 38.9035L46.747 39.8361ZM56.9316 33.0767C55.9912 33.721 55.0501 33.9839 54.1083 33.8655C53.1691 33.7331 52.4315 33.3111 51.8955 32.5995L53.3433 31.6076C53.681 31.9945 54.0981 32.1875 54.5946 32.1868C55.0993 32.1804 55.5662 32.0302 55.9952 31.7363C56.4242 31.4424 56.7069 31.1032 56.8435 30.7187C56.9827 30.3203 56.9365 29.952 56.7047 29.6138C56.2978 29.0198 55.5997 28.8677 54.6103 29.1576L53.2879 29.5364C51.5416 30.0661 50.2446 29.7122 49.3968 28.4748C48.8825 27.724 48.7313 26.9549 48.9432 26.1672C49.1634 25.3739 49.6901 24.6918 50.5233 24.121C51.3895 23.5275 52.2507 23.3072 53.107 23.46C53.9576 23.6046 54.6434 23.9953 55.1647 24.6322L53.7168 25.6241C53.3605 25.2986 52.977 25.137 52.5665 25.1394C52.1504 25.1336 51.7691 25.2494 51.4226 25.4868C51.0431 25.7468 50.7947 26.0564 50.6772 26.4157C50.554 26.7667 50.5929 27.0977 50.7937 27.4086C51.0085 27.7221 51.2786 27.9128 51.604 27.9808C51.9237 28.0406 52.335 27.9951 52.838 27.8445L54.1643 27.445C55.9384 26.9205 57.2606 27.2934 58.131 28.5639C58.6397 29.3063 58.7828 30.0992 58.5605 30.9425C58.3408 31.7718 57.7979 32.4832 56.9316 33.0767ZM64.0194 28.1844C63.0955 28.8174 62.1302 29.0362 61.1237 28.841C60.1114 28.6374 59.286 28.0695 58.6473 27.1373C58.0087 26.2051 57.7759 25.2373 57.9491 24.2338C58.1165 23.222 58.6746 22.3912 59.6233 21.7412C60.5803 21.0856 61.5805 20.8912 62.6241 21.1582C63.6619 21.4168 64.5039 22.0885 65.1501 23.1732L60.2251 26.5474C60.5694 27.0145 61.025 27.2903 61.5919 27.3747C62.1588 27.459 62.7104 27.3175 63.2466 26.9501C64.0055 26.4302 64.3275 25.7854 64.2123 25.0157L65.6354 24.0408C65.8582 24.773 65.8343 25.5166 65.5638 26.2717C65.2932 27.0268 64.7784 27.6644 64.0194 28.1844ZM60.3662 22.9051C59.9207 23.2103 59.6247 23.601 59.4782 24.0771C59.3342 24.5394 59.3752 25.0326 59.6009 25.5567L63.0286 23.2084C62.6018 22.7977 62.1538 22.5773 61.6847 22.5472C61.2099 22.5088 60.7704 22.6281 60.3662 22.9051ZM68.4385 24.975L62.0801 15.6942L63.4413 14.7616L69.7996 24.0425L68.4385 24.975ZM71.6287 22.7893L65.2704 13.5085L66.6315 12.5759L72.9899 21.8568L71.6287 22.7893ZM77.6385 18.8538C76.7146 19.4868 75.7493 19.7056 74.7428 19.5104C73.7306 19.3068 72.9051 18.739 72.2665 17.8067C71.6278 16.8745 71.395 15.9067 71.5682 14.9032C71.7356 13.8914 72.2937 13.0606 73.2424 12.4106C74.1994 11.755 75.1996 11.5606 76.2432 11.8276C77.281 12.0862 78.123 12.7579 78.7692 13.8426L73.8442 17.2168C74.1885 17.6839 74.6441 17.9597 75.211 18.0441C75.7779 18.1284 76.3295 17.9869 76.8657 17.6195C77.6247 17.0996 77.9466 16.4548 77.8314 15.6851L79.2545 14.7102C79.4773 15.4424 79.4535 16.186 79.1829 16.9411C78.9123 17.6963 78.3975 18.3338 77.6385 18.8538ZM73.9853 13.5745C73.5398 13.8797 73.2438 14.2704 73.0973 14.7465C72.9533 15.2088 72.9943 15.702 73.22 16.2261L76.6477 13.8778C76.2209 13.4671 75.773 13.2467 75.3038 13.2166C74.829 13.1782 74.3895 13.2975 73.9853 13.5745ZM82.0576 15.6444L77.8186 9.45721L79.1798 8.52465L79.9344 9.62597C79.8125 9.20036 79.8307 8.77575 79.989 8.35214C80.1555 7.92288 80.4161 7.58673 80.7709 7.3437C80.9854 7.19675 81.174 7.09173 81.3369 7.02865L82.2949 8.42696C82.046 8.48836 81.7937 8.60666 81.538 8.78187C81.1255 9.06447 80.8908 9.47379 80.8337 10.0098C80.7711 10.5376 80.9432 11.0985 81.3502 11.6925L83.4188 14.7119L82.0576 15.6444Z" fill="white"/>
<defs>
<clipPath id="clip0_5871_45527">
<rect x="3.23828" y="54.042" width="15.7417" height="15.7417" rx="1.96772" transform="rotate(-34.4155 3.23828 54.042)" fill="white"/>
</clipPath>
</defs>
</svg>
