<svg width="115" height="115" viewBox="0 0 115 115" fill="none" xmlns="http://www.w3.org/2000/svg">
<circle cx="57.8949" cy="57.0199" r="56.7597" fill="#E5F4ED" stroke="#23A26D" stroke-width="0.520422"/>
<path d="M56.8711 29.8652C41.9101 29.8652 29.7188 42.0566 29.7188 57.0176C29.7188 71.9785 41.9101 84.1699 56.8711 84.1699C71.832 84.1699 84.0234 71.9785 84.0234 57.0176C84.0234 42.0566 71.832 29.8652 56.8711 29.8652ZM69.8499 50.7725L54.4545 66.1679C54.0744 66.548 53.5585 66.7652 53.0154 66.7652C52.4724 66.7652 51.9565 66.548 51.5764 66.1679L43.8923 58.4838C43.1048 57.6964 43.1048 56.3931 43.8923 55.6056C44.6797 54.8182 45.983 54.8182 46.7704 55.6056L53.0154 61.8507L66.9717 47.8944C67.7592 47.107 69.0625 47.107 69.8499 47.8944C70.6373 48.6818 70.6373 49.958 69.8499 50.7725Z" fill="#23A26D"/>
</svg>
