<svg width="281" height="215" viewBox="0 0 281 215" fill="none" xmlns="http://www.w3.org/2000/svg">
<path fill-rule="evenodd" clip-rule="evenodd" d="M112.732 134.271L99.8627 95.6633H112.732V63.4898H80.5586L80.5586 95.6633L93.428 134.271H112.732Z" fill="#FF9E1B"/>
<path fill-rule="evenodd" clip-rule="evenodd" d="M164.209 134.271L151.339 95.6633H164.209V63.4898H132.035V95.6633L144.905 134.271H164.209Z" fill="#FF9E1B"/>
<mask id="path-3-inside-1_6658_20744" fill="white">
<path d="M81.842 0.869141C53.4303 0.869141 39.2243 0.869248 28.3723 6.39844C18.8266 11.2622 11.0652 19.0236 6.20142 28.5693C0.672241 39.4213 0.672119 53.6273 0.672119 82.0391V105.714C0.672119 134.126 0.672211 148.332 6.20142 159.184C11.0652 168.729 18.8266 176.491 28.3723 181.354C39.2242 186.884 53.4303 186.884 81.842 186.884H200.24C202.456 186.884 204.651 187.319 206.699 188.166L270.131 214.381C276.543 217.03 282.865 210.42 279.934 204.133L255.912 152.614C254.869 150.376 254.328 147.937 254.328 145.468V82.0391C254.328 53.6273 254.328 39.4213 248.799 28.5693C243.935 19.0236 236.174 11.2622 226.628 6.39844C215.776 0.869262 201.57 0.869141 173.158 0.869141H81.842Z"/>
</mask>
<path d="M81.842 0.869141V-12.2765V0.869141ZM28.3723 6.39844L22.4043 -5.3144L22.4044 -5.31447L28.3723 6.39844ZM6.20142 28.5693L-5.51151 22.6015L-5.51144 22.6013L6.20142 28.5693ZM0.672119 82.0391H-12.4735H0.672119ZM0.672119 105.714H-12.4735H0.672119ZM6.20142 159.184L-5.51144 165.152L-5.51151 165.151L6.20142 159.184ZM28.3723 181.354L22.4045 193.067L22.4043 193.067L28.3723 181.354ZM81.842 186.884V200.029V186.884ZM270.131 214.381L265.11 226.53L265.11 226.53L270.131 214.381ZM279.934 204.133L291.848 198.578L291.848 198.578L279.934 204.133ZM254.328 82.0391H267.474H254.328ZM248.799 28.5693L260.512 22.6013L260.512 22.6015L248.799 28.5693ZM226.628 6.39844L232.596 -5.31448L232.596 -5.3144L226.628 6.39844ZM173.158 0.869141V-12.2765V0.869141ZM206.699 188.166L201.678 200.315L206.699 188.166ZM81.842 0.869141V14.0148C67.4193 14.0148 57.3927 14.025 49.5927 14.6623C41.9462 15.2871 37.6042 16.4483 34.3402 18.1113L28.3723 6.39844L22.4044 -5.31447C29.9924 -9.18061 38.1794 -10.784 47.4518 -11.5416C56.5707 -12.2867 67.853 -12.2765 81.842 -12.2765V0.869141ZM28.3723 6.39844L34.3403 18.1113C27.2681 21.7147 21.5177 27.4651 17.9142 34.5373L6.20142 28.5693L-5.51144 22.6013C0.612671 10.5821 10.3851 0.809689 22.4043 -5.3144L28.3723 6.39844ZM6.20142 28.5693L17.9143 34.5372C16.2513 37.8012 15.0901 42.1432 14.4653 49.7898C13.828 57.5898 13.8177 67.6163 13.8177 82.0391H0.672119H-12.4735C-12.4735 68.0501 -12.4837 56.7677 -11.7386 47.6488C-10.981 38.3764 -9.37762 30.1894 -5.51151 22.6015L6.20142 28.5693ZM0.672119 82.0391H13.8177V105.714H0.672119H-12.4735V82.0391H0.672119ZM0.672119 105.714H13.8177C13.8177 120.137 13.828 130.163 14.4653 137.963C15.09 145.61 16.2513 149.952 17.9143 153.216L6.20142 159.184L-5.51151 165.151C-9.37766 157.564 -10.9811 149.377 -11.7386 140.104C-12.4837 130.985 -12.4735 119.703 -12.4735 105.714H0.672119ZM6.20142 159.184L17.9142 153.216C21.5177 160.288 27.2681 166.038 34.3403 169.642L28.3723 181.354L22.4043 193.067C10.3851 186.943 0.612671 177.171 -5.51144 165.152L6.20142 159.184ZM28.3723 181.354L34.3401 169.642C37.6042 171.305 41.9462 172.466 49.5927 173.091C57.3927 173.728 67.4193 173.738 81.842 173.738V186.884V200.029C67.853 200.029 56.5707 200.04 47.4518 199.295C38.1794 198.537 29.9924 196.934 22.4045 193.067L28.3723 181.354ZM81.842 186.884V173.738H200.24V186.884V200.029H81.842V186.884ZM206.699 188.166L211.72 176.017L275.152 202.232L270.131 214.381L265.11 226.53L201.678 200.315L206.699 188.166ZM270.131 214.381L275.152 202.232C270.487 200.304 265.887 205.114 268.02 209.688L279.934 204.133L291.848 198.578C299.844 215.727 282.598 233.757 265.11 226.53L270.131 214.381ZM279.934 204.133L268.02 209.688L243.998 158.169L255.912 152.614L267.827 147.059L291.848 198.578L279.934 204.133ZM254.328 145.468H241.183V82.0391H254.328H267.474V145.468H254.328ZM254.328 82.0391H241.183C241.183 67.6163 241.172 57.5898 240.535 49.7898C239.91 42.1432 238.749 37.8012 237.086 34.5372L248.799 28.5693L260.512 22.6015C264.378 30.1894 265.982 38.3764 266.739 47.6488C267.484 56.7677 267.474 68.0501 267.474 82.0391H254.328ZM248.799 28.5693L237.086 34.5373C233.483 27.4651 227.732 21.7147 220.66 18.1113L226.628 6.39844L232.596 -5.3144C244.615 0.809689 254.388 10.5821 260.512 22.6013L248.799 28.5693ZM226.628 6.39844L220.66 18.1114C217.396 16.4483 213.054 15.2871 205.408 14.6623C197.608 14.025 187.581 14.0148 173.158 14.0148V0.869141V-12.2765C187.147 -12.2765 198.43 -12.2867 207.549 -11.5416C216.821 -10.784 225.008 -9.1806 232.596 -5.31448L226.628 6.39844ZM173.158 0.869141V14.0148H81.842V0.869141V-12.2765H173.158V0.869141ZM255.912 152.614L243.998 158.169C242.144 154.192 241.183 149.857 241.183 145.468H254.328H267.474C267.474 146.018 267.594 146.561 267.827 147.059L255.912 152.614ZM200.24 186.884V173.738C204.179 173.738 208.08 174.512 211.72 176.017L206.699 188.166L201.678 200.315C201.222 200.126 200.734 200.029 200.24 200.029V186.884Z" fill="#D5CCCC" mask="url(#path-3-inside-1_6658_20744)"/>
</svg>
